%TF.GenerationSoftware,KiCad,Pcbnew,8.0.6*%
%TF.CreationDate,2024-12-14T19:22:35-05:00*%
%TF.ProjectId,dpx_pd_pooper,6470785f-7064-45f7-906f-6f7065722e6b,rev?*%
%TF.SameCoordinates,Original*%
%TF.FileFunction,Legend,Top*%
%TF.FilePolarity,Positive*%
%FSLAX46Y46*%
G04 Gerber Fmt 4.6, Leading zero omitted, Abs format (unit mm)*
G04 Created by KiCad (PCBNEW 8.0.6) date 2024-12-14 19:22:35*
%MOMM*%
%LPD*%
G01*
G04 APERTURE LIST*
G04 Aperture macros list*
%AMRoundRect*
0 Rectangle with rounded corners*
0 $1 Rounding radius*
0 $2 $3 $4 $5 $6 $7 $8 $9 X,Y pos of 4 corners*
0 Add a 4 corners polygon primitive as box body*
4,1,4,$2,$3,$4,$5,$6,$7,$8,$9,$2,$3,0*
0 Add four circle primitives for the rounded corners*
1,1,$1+$1,$2,$3*
1,1,$1+$1,$4,$5*
1,1,$1+$1,$6,$7*
1,1,$1+$1,$8,$9*
0 Add four rect primitives between the rounded corners*
20,1,$1+$1,$2,$3,$4,$5,0*
20,1,$1+$1,$4,$5,$6,$7,0*
20,1,$1+$1,$6,$7,$8,$9,0*
20,1,$1+$1,$8,$9,$2,$3,0*%
G04 Aperture macros list end*
%ADD10C,0.100000*%
%ADD11C,0.150000*%
%ADD12C,0.300000*%
%ADD13C,0.098425*%
%ADD14C,0.120000*%
%ADD15C,0.010000*%
%ADD16C,0.000000*%
%ADD17RoundRect,0.150000X-0.150000X0.687500X-0.150000X-0.687500X0.150000X-0.687500X0.150000X0.687500X0*%
%ADD18R,3.300000X2.100000*%
%ADD19C,3.500000*%
%ADD20C,2.600000*%
%ADD21RoundRect,0.250000X0.450000X-0.350000X0.450000X0.350000X-0.450000X0.350000X-0.450000X-0.350000X0*%
%ADD22RoundRect,0.250000X-0.450000X0.350000X-0.450000X-0.350000X0.450000X-0.350000X0.450000X0.350000X0*%
%ADD23R,2.600000X2.600000*%
%ADD24C,0.650000*%
%ADD25R,1.450000X0.600000*%
%ADD26R,1.450000X0.300000*%
%ADD27O,2.100000X1.000000*%
%ADD28O,1.600000X1.000000*%
%ADD29RoundRect,0.237500X0.237500X-0.300000X0.237500X0.300000X-0.237500X0.300000X-0.237500X-0.300000X0*%
%ADD30RoundRect,0.250000X0.325000X0.450000X-0.325000X0.450000X-0.325000X-0.450000X0.325000X-0.450000X0*%
%ADD31RoundRect,0.190000X0.190000X-0.445000X0.190000X0.445000X-0.190000X0.445000X-0.190000X-0.445000X0*%
%ADD32RoundRect,0.102000X0.500000X0.485000X-0.500000X0.485000X-0.500000X-0.485000X0.500000X-0.485000X0*%
G04 APERTURE END LIST*
D10*
X68517645Y-72790000D02*
G75*
G02*
X65802355Y-72790000I-1357645J0D01*
G01*
X65802355Y-72790000D02*
G75*
G02*
X68517645Y-72790000I1357645J0D01*
G01*
X68477645Y-58360000D02*
G75*
G02*
X65762355Y-58360000I-1357645J0D01*
G01*
X65762355Y-58360000D02*
G75*
G02*
X68477645Y-58360000I1357645J0D01*
G01*
G36*
X67567180Y-58294061D02*
G01*
X67550327Y-58366601D01*
X67504166Y-58414228D01*
X67432358Y-58420823D01*
X67356154Y-58454528D01*
X67271891Y-58455261D01*
X67166378Y-58454528D01*
X67161981Y-58471381D01*
X67145129Y-58475778D01*
X67102630Y-58458925D01*
X67018367Y-58454528D01*
X66974403Y-58454528D01*
X66938499Y-58454528D01*
X66929706Y-58454528D01*
X66912854Y-58454528D01*
X66891605Y-58452330D01*
X66853503Y-58450132D01*
X66813935Y-58450132D01*
X66790488Y-58454528D01*
X66769239Y-58465519D01*
X66748722Y-58454528D01*
X66619762Y-58458925D01*
X66516448Y-58454528D01*
X66512051Y-58454528D01*
X66495198Y-58454528D01*
X66457096Y-58433279D01*
X66410935Y-58411297D01*
X66347187Y-58346085D01*
X66324473Y-58327034D01*
X66305422Y-58302854D01*
X66267320Y-58255959D01*
X66241674Y-58195143D01*
X66388678Y-58175771D01*
X66438046Y-58175359D01*
X66588346Y-58174947D01*
X66638813Y-58173161D01*
X66676182Y-58149713D01*
X66706224Y-58126266D01*
X66742128Y-58143852D01*
X66811737Y-58173161D01*
X66874752Y-58173161D01*
X66938499Y-58173161D01*
X67084229Y-58192770D01*
X67216936Y-58214193D01*
X67363530Y-58226394D01*
X67482916Y-58213461D01*
X67486580Y-58247899D01*
X67516622Y-58261821D01*
X67548129Y-58272079D01*
X67567180Y-58294061D01*
G37*
D11*
X56382969Y-78570961D02*
X56573445Y-79104295D01*
X56573445Y-79104295D02*
X56763922Y-78570961D01*
X57221065Y-78304295D02*
X57297255Y-78304295D01*
X57297255Y-78304295D02*
X57373446Y-78342390D01*
X57373446Y-78342390D02*
X57411541Y-78380485D01*
X57411541Y-78380485D02*
X57449636Y-78456676D01*
X57449636Y-78456676D02*
X57487731Y-78609057D01*
X57487731Y-78609057D02*
X57487731Y-78799533D01*
X57487731Y-78799533D02*
X57449636Y-78951914D01*
X57449636Y-78951914D02*
X57411541Y-79028104D01*
X57411541Y-79028104D02*
X57373446Y-79066200D01*
X57373446Y-79066200D02*
X57297255Y-79104295D01*
X57297255Y-79104295D02*
X57221065Y-79104295D01*
X57221065Y-79104295D02*
X57144874Y-79066200D01*
X57144874Y-79066200D02*
X57106779Y-79028104D01*
X57106779Y-79028104D02*
X57068684Y-78951914D01*
X57068684Y-78951914D02*
X57030588Y-78799533D01*
X57030588Y-78799533D02*
X57030588Y-78609057D01*
X57030588Y-78609057D02*
X57068684Y-78456676D01*
X57068684Y-78456676D02*
X57106779Y-78380485D01*
X57106779Y-78380485D02*
X57144874Y-78342390D01*
X57144874Y-78342390D02*
X57221065Y-78304295D01*
X58173446Y-79104295D02*
X58173446Y-78304295D01*
X58173446Y-79066200D02*
X58097255Y-79104295D01*
X58097255Y-79104295D02*
X57944874Y-79104295D01*
X57944874Y-79104295D02*
X57868684Y-79066200D01*
X57868684Y-79066200D02*
X57830589Y-79028104D01*
X57830589Y-79028104D02*
X57792493Y-78951914D01*
X57792493Y-78951914D02*
X57792493Y-78723342D01*
X57792493Y-78723342D02*
X57830589Y-78647152D01*
X57830589Y-78647152D02*
X57868684Y-78609057D01*
X57868684Y-78609057D02*
X57944874Y-78570961D01*
X57944874Y-78570961D02*
X58097255Y-78570961D01*
X58097255Y-78570961D02*
X58173446Y-78609057D01*
X58935351Y-78304295D02*
X58554399Y-78304295D01*
X58554399Y-78304295D02*
X58516303Y-78685247D01*
X58516303Y-78685247D02*
X58554399Y-78647152D01*
X58554399Y-78647152D02*
X58630589Y-78609057D01*
X58630589Y-78609057D02*
X58821065Y-78609057D01*
X58821065Y-78609057D02*
X58897256Y-78647152D01*
X58897256Y-78647152D02*
X58935351Y-78685247D01*
X58935351Y-78685247D02*
X58973446Y-78761438D01*
X58973446Y-78761438D02*
X58973446Y-78951914D01*
X58973446Y-78951914D02*
X58935351Y-79028104D01*
X58935351Y-79028104D02*
X58897256Y-79066200D01*
X58897256Y-79066200D02*
X58821065Y-79104295D01*
X58821065Y-79104295D02*
X58630589Y-79104295D01*
X58630589Y-79104295D02*
X58554399Y-79066200D01*
X58554399Y-79066200D02*
X58516303Y-79028104D01*
X59925828Y-78799533D02*
X60535352Y-78799533D01*
X61944875Y-79104295D02*
X61487732Y-79104295D01*
X61716304Y-79104295D02*
X61716304Y-78304295D01*
X61716304Y-78304295D02*
X61640113Y-78418580D01*
X61640113Y-78418580D02*
X61563923Y-78494771D01*
X61563923Y-78494771D02*
X61487732Y-78532866D01*
X62706780Y-79104295D02*
X62249637Y-79104295D01*
X62478209Y-79104295D02*
X62478209Y-78304295D01*
X62478209Y-78304295D02*
X62402018Y-78418580D01*
X62402018Y-78418580D02*
X62325828Y-78494771D01*
X62325828Y-78494771D02*
X62249637Y-78532866D01*
X63049638Y-79028104D02*
X63087733Y-79066200D01*
X63087733Y-79066200D02*
X63049638Y-79104295D01*
X63049638Y-79104295D02*
X63011542Y-79066200D01*
X63011542Y-79066200D02*
X63049638Y-79028104D01*
X63049638Y-79028104D02*
X63049638Y-79104295D01*
X63392494Y-78380485D02*
X63430590Y-78342390D01*
X63430590Y-78342390D02*
X63506780Y-78304295D01*
X63506780Y-78304295D02*
X63697256Y-78304295D01*
X63697256Y-78304295D02*
X63773447Y-78342390D01*
X63773447Y-78342390D02*
X63811542Y-78380485D01*
X63811542Y-78380485D02*
X63849637Y-78456676D01*
X63849637Y-78456676D02*
X63849637Y-78532866D01*
X63849637Y-78532866D02*
X63811542Y-78647152D01*
X63811542Y-78647152D02*
X63354399Y-79104295D01*
X63354399Y-79104295D02*
X63849637Y-79104295D01*
X64535352Y-78304295D02*
X64382971Y-78304295D01*
X64382971Y-78304295D02*
X64306780Y-78342390D01*
X64306780Y-78342390D02*
X64268685Y-78380485D01*
X64268685Y-78380485D02*
X64192495Y-78494771D01*
X64192495Y-78494771D02*
X64154399Y-78647152D01*
X64154399Y-78647152D02*
X64154399Y-78951914D01*
X64154399Y-78951914D02*
X64192495Y-79028104D01*
X64192495Y-79028104D02*
X64230590Y-79066200D01*
X64230590Y-79066200D02*
X64306780Y-79104295D01*
X64306780Y-79104295D02*
X64459161Y-79104295D01*
X64459161Y-79104295D02*
X64535352Y-79066200D01*
X64535352Y-79066200D02*
X64573447Y-79028104D01*
X64573447Y-79028104D02*
X64611542Y-78951914D01*
X64611542Y-78951914D02*
X64611542Y-78761438D01*
X64611542Y-78761438D02*
X64573447Y-78685247D01*
X64573447Y-78685247D02*
X64535352Y-78647152D01*
X64535352Y-78647152D02*
X64459161Y-78609057D01*
X64459161Y-78609057D02*
X64306780Y-78609057D01*
X64306780Y-78609057D02*
X64230590Y-78647152D01*
X64230590Y-78647152D02*
X64192495Y-78685247D01*
X64192495Y-78685247D02*
X64154399Y-78761438D01*
X64954400Y-79028104D02*
X64992495Y-79066200D01*
X64992495Y-79066200D02*
X64954400Y-79104295D01*
X64954400Y-79104295D02*
X64916304Y-79066200D01*
X64916304Y-79066200D02*
X64954400Y-79028104D01*
X64954400Y-79028104D02*
X64954400Y-79104295D01*
X65297256Y-78380485D02*
X65335352Y-78342390D01*
X65335352Y-78342390D02*
X65411542Y-78304295D01*
X65411542Y-78304295D02*
X65602018Y-78304295D01*
X65602018Y-78304295D02*
X65678209Y-78342390D01*
X65678209Y-78342390D02*
X65716304Y-78380485D01*
X65716304Y-78380485D02*
X65754399Y-78456676D01*
X65754399Y-78456676D02*
X65754399Y-78532866D01*
X65754399Y-78532866D02*
X65716304Y-78647152D01*
X65716304Y-78647152D02*
X65259161Y-79104295D01*
X65259161Y-79104295D02*
X65754399Y-79104295D01*
X66440114Y-78570961D02*
X66440114Y-79104295D01*
X66249638Y-78266200D02*
X66059161Y-78837628D01*
X66059161Y-78837628D02*
X66554400Y-78837628D01*
D12*
G36*
X45894787Y-77440403D02*
G01*
X46365565Y-77440403D01*
X46365565Y-77548847D01*
X45894787Y-77548847D01*
X45894787Y-77440403D01*
G37*
G36*
X45894787Y-78344883D02*
G01*
X46365565Y-78344883D01*
X46365565Y-78453327D01*
X45894787Y-78453327D01*
X45894787Y-78344883D01*
G37*
G36*
X45894787Y-78171959D02*
G01*
X46365565Y-78171959D01*
X46365565Y-78280403D01*
X45894787Y-78280403D01*
X45894787Y-78171959D01*
G37*
G36*
X45894787Y-77988484D02*
G01*
X46365565Y-77988484D01*
X46365565Y-78096928D01*
X45894787Y-78096928D01*
X45894787Y-77988484D01*
G37*
G36*
X45894787Y-77815560D02*
G01*
X46365565Y-77815560D01*
X46365565Y-77924004D01*
X45894787Y-77924004D01*
X45894787Y-77815560D01*
G37*
G36*
X45238262Y-77627981D02*
G01*
X46365565Y-77627981D01*
X46365565Y-77736425D01*
X45238262Y-77736425D01*
X45238262Y-77627981D01*
G37*
G36*
X45003789Y-77815560D02*
G01*
X45474567Y-77815560D01*
X45474567Y-77924004D01*
X45003789Y-77924004D01*
X45003789Y-77815560D01*
G37*
G36*
X45238262Y-78532461D02*
G01*
X46152707Y-78532461D01*
X46152707Y-78640905D01*
X45238262Y-78640905D01*
X45238262Y-78532461D01*
G37*
G36*
X45003789Y-78344883D02*
G01*
X45474567Y-78344883D01*
X45474567Y-78453327D01*
X45003789Y-78453327D01*
X45003789Y-78344883D01*
G37*
G36*
X45003789Y-78171959D02*
G01*
X45474567Y-78171959D01*
X45474567Y-78280403D01*
X45003789Y-78280403D01*
X45003789Y-78171959D01*
G37*
G36*
X45003789Y-77988484D02*
G01*
X45474567Y-77988484D01*
X45474567Y-78096928D01*
X45003789Y-78096928D01*
X45003789Y-77988484D01*
G37*
G36*
X47868391Y-78640905D02*
G01*
X47632086Y-78640905D01*
X47410069Y-78640905D01*
X46725701Y-78640905D01*
X46725701Y-78532461D01*
X47410069Y-78532461D01*
X47632086Y-78532461D01*
X47868391Y-78532461D01*
X47868391Y-78640905D01*
G37*
G36*
X47159476Y-78344883D02*
G01*
X47400177Y-78344883D01*
X47627323Y-78344883D01*
X47868391Y-78344883D01*
X47868391Y-78453327D01*
X47627323Y-78453327D01*
X47400177Y-78453327D01*
X47159476Y-78453327D01*
X47159476Y-78344883D01*
G37*
G36*
X46502951Y-78344883D02*
G01*
X46973729Y-78344883D01*
X46973729Y-78453327D01*
X46502951Y-78453327D01*
X46502951Y-78344883D01*
G37*
G36*
X46973729Y-78171959D02*
G01*
X46973729Y-78280403D01*
X46502951Y-78280403D01*
X46502951Y-78171959D01*
X46973729Y-78171959D01*
G37*
G36*
X46973729Y-77988484D02*
G01*
X46973729Y-78096928D01*
X46502951Y-78096928D01*
X46502951Y-77988484D01*
X46973729Y-77988484D01*
G37*
G36*
X46973729Y-77815560D02*
G01*
X46973729Y-77924004D01*
X46502951Y-77924004D01*
X46502951Y-77815560D01*
X46973729Y-77815560D01*
G37*
G36*
X46973729Y-77627981D02*
G01*
X46973729Y-77736425D01*
X46502951Y-77736425D01*
X46502951Y-77627981D01*
X46973729Y-77627981D01*
G37*
G36*
X47868391Y-77736425D02*
G01*
X47397613Y-77736425D01*
X47397613Y-77627981D01*
X47868391Y-77627981D01*
X47868391Y-77736425D01*
G37*
G36*
X47868391Y-77924004D02*
G01*
X47397613Y-77924004D01*
X47397613Y-77815560D01*
X47868391Y-77815560D01*
X47868391Y-77924004D01*
G37*
G36*
X47868391Y-78096928D02*
G01*
X47397613Y-78096928D01*
X47397613Y-77988484D01*
X47868391Y-77988484D01*
X47868391Y-78096928D01*
G37*
G36*
X47868391Y-78280403D02*
G01*
X47397613Y-78280403D01*
X47397613Y-78171959D01*
X47868391Y-78171959D01*
X47868391Y-78280403D01*
G37*
G36*
X48002114Y-77440403D02*
G01*
X48472892Y-77440403D01*
X48472892Y-77548847D01*
X48002114Y-77548847D01*
X48002114Y-77440403D01*
G37*
G36*
X49151032Y-77736425D02*
G01*
X48002114Y-77736425D01*
X48002114Y-77627981D01*
X49151032Y-77627981D01*
X49151032Y-77736425D01*
G37*
G36*
X48893112Y-77924004D02*
G01*
X48893112Y-77815560D01*
X49363890Y-77815560D01*
X49363890Y-77924004D01*
X48893112Y-77924004D01*
G37*
G36*
X48893112Y-77988484D02*
G01*
X49363890Y-77988484D01*
X49363890Y-78096928D01*
X48893112Y-78096928D01*
X48893112Y-77988484D01*
G37*
G36*
X48893112Y-78171959D02*
G01*
X49363890Y-78171959D01*
X49363890Y-78280403D01*
X48893112Y-78280403D01*
X48893112Y-78171959D01*
G37*
G36*
X48893112Y-78344883D02*
G01*
X49363890Y-78344883D01*
X49363890Y-78453327D01*
X48893112Y-78453327D01*
X48893112Y-78344883D01*
G37*
G36*
X48236587Y-78532461D02*
G01*
X49151032Y-78532461D01*
X49151032Y-78640905D01*
X48236587Y-78640905D01*
X48236587Y-78532461D01*
G37*
G36*
X48002114Y-78344883D02*
G01*
X48472892Y-78344883D01*
X48472892Y-78453327D01*
X48002114Y-78453327D01*
X48002114Y-78344883D01*
G37*
G36*
X48002114Y-78171959D02*
G01*
X48472892Y-78171959D01*
X48472892Y-78280403D01*
X48002114Y-78280403D01*
X48002114Y-78171959D01*
G37*
G36*
X48002114Y-77988484D02*
G01*
X48472892Y-77988484D01*
X48472892Y-78096928D01*
X48002114Y-78096928D01*
X48002114Y-77988484D01*
G37*
G36*
X48002114Y-77815560D02*
G01*
X48705533Y-77815560D01*
X48705533Y-77924004D01*
X48002114Y-77924004D01*
X48002114Y-77815560D01*
G37*
G36*
X49501277Y-78640905D02*
G01*
X49501277Y-78532461D01*
X49972055Y-78532461D01*
X49972055Y-78640905D01*
X49501277Y-78640905D01*
G37*
G36*
X49501277Y-77988484D02*
G01*
X49972055Y-77988484D01*
X49972055Y-78096928D01*
X49501277Y-78096928D01*
X49501277Y-77988484D01*
G37*
G36*
X49501277Y-77815560D02*
G01*
X49972055Y-77815560D01*
X49972055Y-77924004D01*
X49501277Y-77924004D01*
X49501277Y-77815560D01*
G37*
G36*
X50638105Y-77736425D02*
G01*
X49501277Y-77736425D01*
X49501277Y-77627981D01*
X50638105Y-77627981D01*
X50638105Y-77736425D01*
G37*
G36*
X50392274Y-77924004D02*
G01*
X50392274Y-77815560D01*
X50863053Y-77815560D01*
X50863053Y-77924004D01*
X50392274Y-77924004D01*
G37*
G36*
X50392274Y-78096928D02*
G01*
X50392274Y-77988484D01*
X50863053Y-77988484D01*
X50863053Y-78096928D01*
X50392274Y-78096928D01*
G37*
G36*
X49501277Y-78280403D02*
G01*
X49501277Y-78171959D01*
X50638105Y-78171959D01*
X50638105Y-78280403D01*
X49501277Y-78280403D01*
G37*
G36*
X49501277Y-78453327D02*
G01*
X49501277Y-78344883D01*
X49972055Y-78344883D01*
X49972055Y-78453327D01*
X49501277Y-78453327D01*
G37*
G36*
X51233080Y-78640905D02*
G01*
X51233080Y-78532461D01*
X51703859Y-78532461D01*
X51703859Y-78640905D01*
X51233080Y-78640905D01*
G37*
G36*
X51233080Y-78171959D02*
G01*
X51703859Y-78171959D01*
X51703859Y-78280403D01*
X51233080Y-78280403D01*
X51233080Y-78171959D01*
G37*
G36*
X51233080Y-77988484D02*
G01*
X51703859Y-77988484D01*
X51703859Y-78096928D01*
X51233080Y-78096928D01*
X51233080Y-77988484D01*
G37*
G36*
X51000439Y-77815560D02*
G01*
X51703859Y-77815560D01*
X51703859Y-77924004D01*
X51000439Y-77924004D01*
X51000439Y-77815560D01*
G37*
G36*
X51233080Y-77440403D02*
G01*
X51703859Y-77440403D01*
X51703859Y-77548847D01*
X51233080Y-77548847D01*
X51233080Y-77440403D01*
G37*
G36*
X51233080Y-78453327D02*
G01*
X51233080Y-78344883D01*
X51703859Y-78344883D01*
X51703859Y-78453327D01*
X51233080Y-78453327D01*
G37*
G36*
X51791786Y-78640905D02*
G01*
X51791786Y-78532461D01*
X52262564Y-78532461D01*
X52262564Y-78640905D01*
X51791786Y-78640905D01*
G37*
G36*
X52239117Y-77988484D02*
G01*
X52708063Y-77988484D01*
X52708063Y-78096928D01*
X52239117Y-78096928D01*
X52239117Y-77988484D01*
G37*
G36*
X52026259Y-77815560D02*
G01*
X52940704Y-77815560D01*
X52940704Y-77924004D01*
X52026259Y-77924004D01*
X52026259Y-77815560D01*
G37*
G36*
X52684616Y-77627981D02*
G01*
X53153562Y-77627981D01*
X53153562Y-77736425D01*
X52684616Y-77736425D01*
X52684616Y-77627981D01*
G37*
G36*
X51791786Y-77627981D02*
G01*
X52262564Y-77627981D01*
X52262564Y-77736425D01*
X51791786Y-77736425D01*
X51791786Y-77627981D01*
G37*
G36*
X52026259Y-78280403D02*
G01*
X52026259Y-78171959D01*
X52940704Y-78171959D01*
X52940704Y-78280403D01*
X52026259Y-78280403D01*
G37*
G36*
X52684616Y-78453327D02*
G01*
X52684616Y-78344883D01*
X53153562Y-78344883D01*
X53153562Y-78453327D01*
X52684616Y-78453327D01*
G37*
G36*
X52684616Y-78640905D02*
G01*
X52684616Y-78532461D01*
X53153562Y-78532461D01*
X53153562Y-78640905D01*
X52684616Y-78640905D01*
G37*
G36*
X51791786Y-78453327D02*
G01*
X51791786Y-78344883D01*
X52262564Y-78344883D01*
X52262564Y-78453327D01*
X51791786Y-78453327D01*
G37*
G36*
X54439867Y-78640905D02*
G01*
X53525422Y-78640905D01*
X53525422Y-78532461D01*
X54439867Y-78532461D01*
X54439867Y-78640905D01*
G37*
G36*
X53525422Y-77627981D02*
G01*
X54439867Y-77627981D01*
X54439867Y-77736425D01*
X53525422Y-77736425D01*
X53525422Y-77627981D01*
G37*
G36*
X53290949Y-77924004D02*
G01*
X53290949Y-77815560D01*
X53761727Y-77815560D01*
X53761727Y-77924004D01*
X53290949Y-77924004D01*
G37*
G36*
X53290949Y-78096928D02*
G01*
X53290949Y-77988484D01*
X53761727Y-77988484D01*
X53761727Y-78096928D01*
X53290949Y-78096928D01*
G37*
G36*
X54181946Y-77924004D02*
G01*
X54181946Y-77815560D01*
X54652725Y-77815560D01*
X54652725Y-77924004D01*
X54181946Y-77924004D01*
G37*
G36*
X54181946Y-78096928D02*
G01*
X54181946Y-77988484D01*
X54652725Y-77988484D01*
X54652725Y-78096928D01*
X54181946Y-78096928D01*
G37*
G36*
X53290949Y-78171959D02*
G01*
X54439867Y-78171959D01*
X54439867Y-78280403D01*
X53290949Y-78280403D01*
X53290949Y-78171959D01*
G37*
G36*
X53761727Y-78453327D02*
G01*
X53290949Y-78453327D01*
X53290949Y-78344883D01*
X53761727Y-78344883D01*
X53761727Y-78453327D01*
G37*
G36*
X54790111Y-77440403D02*
G01*
X55493531Y-77440403D01*
X55493531Y-77548847D01*
X54790111Y-77548847D01*
X54790111Y-77440403D01*
G37*
G36*
X54790111Y-78532461D02*
G01*
X55704556Y-78532461D01*
X55704556Y-78640905D01*
X54790111Y-78640905D01*
X54790111Y-78532461D01*
G37*
G36*
X55022752Y-78344883D02*
G01*
X55493531Y-78344883D01*
X55493531Y-78453327D01*
X55022752Y-78453327D01*
X55022752Y-78344883D01*
G37*
G36*
X55022752Y-78171959D02*
G01*
X55493531Y-78171959D01*
X55493531Y-78280403D01*
X55022752Y-78280403D01*
X55022752Y-78171959D01*
G37*
G36*
X55022752Y-77988484D02*
G01*
X55493531Y-77988484D01*
X55493531Y-78096928D01*
X55022752Y-78096928D01*
X55022752Y-77988484D01*
G37*
G36*
X55022752Y-77815560D02*
G01*
X55493531Y-77815560D01*
X55493531Y-77924004D01*
X55022752Y-77924004D01*
X55022752Y-77815560D01*
G37*
G36*
X55022752Y-77627981D02*
G01*
X55493531Y-77627981D01*
X55493531Y-77736425D01*
X55022752Y-77736425D01*
X55022752Y-77627981D01*
G37*
D10*
X60591428Y-60041085D02*
X60629524Y-60002990D01*
X60629524Y-60002990D02*
X60705714Y-59964895D01*
X60705714Y-59964895D02*
X60896190Y-59964895D01*
X60896190Y-59964895D02*
X60972381Y-60002990D01*
X60972381Y-60002990D02*
X61010476Y-60041085D01*
X61010476Y-60041085D02*
X61048571Y-60117276D01*
X61048571Y-60117276D02*
X61048571Y-60193466D01*
X61048571Y-60193466D02*
X61010476Y-60307752D01*
X61010476Y-60307752D02*
X60553333Y-60764895D01*
X60553333Y-60764895D02*
X61048571Y-60764895D01*
D11*
X56935350Y-77694295D02*
X56935350Y-76894295D01*
X56935350Y-77656200D02*
X56840112Y-77694295D01*
X56840112Y-77694295D02*
X56649636Y-77694295D01*
X56649636Y-77694295D02*
X56554398Y-77656200D01*
X56554398Y-77656200D02*
X56506779Y-77618104D01*
X56506779Y-77618104D02*
X56459160Y-77541914D01*
X56459160Y-77541914D02*
X56459160Y-77313342D01*
X56459160Y-77313342D02*
X56506779Y-77237152D01*
X56506779Y-77237152D02*
X56554398Y-77199057D01*
X56554398Y-77199057D02*
X56649636Y-77160961D01*
X56649636Y-77160961D02*
X56840112Y-77160961D01*
X56840112Y-77160961D02*
X56935350Y-77199057D01*
X57411541Y-77160961D02*
X57411541Y-77960961D01*
X57411541Y-77199057D02*
X57506779Y-77160961D01*
X57506779Y-77160961D02*
X57697255Y-77160961D01*
X57697255Y-77160961D02*
X57792493Y-77199057D01*
X57792493Y-77199057D02*
X57840112Y-77237152D01*
X57840112Y-77237152D02*
X57887731Y-77313342D01*
X57887731Y-77313342D02*
X57887731Y-77541914D01*
X57887731Y-77541914D02*
X57840112Y-77618104D01*
X57840112Y-77618104D02*
X57792493Y-77656200D01*
X57792493Y-77656200D02*
X57697255Y-77694295D01*
X57697255Y-77694295D02*
X57506779Y-77694295D01*
X57506779Y-77694295D02*
X57411541Y-77656200D01*
X58221065Y-77694295D02*
X58744874Y-77160961D01*
X58221065Y-77160961D02*
X58744874Y-77694295D01*
X58887732Y-77770485D02*
X59649636Y-77770485D01*
X59887732Y-77160961D02*
X59887732Y-77960961D01*
X59887732Y-77199057D02*
X59982970Y-77160961D01*
X59982970Y-77160961D02*
X60173446Y-77160961D01*
X60173446Y-77160961D02*
X60268684Y-77199057D01*
X60268684Y-77199057D02*
X60316303Y-77237152D01*
X60316303Y-77237152D02*
X60363922Y-77313342D01*
X60363922Y-77313342D02*
X60363922Y-77541914D01*
X60363922Y-77541914D02*
X60316303Y-77618104D01*
X60316303Y-77618104D02*
X60268684Y-77656200D01*
X60268684Y-77656200D02*
X60173446Y-77694295D01*
X60173446Y-77694295D02*
X59982970Y-77694295D01*
X59982970Y-77694295D02*
X59887732Y-77656200D01*
X61221065Y-77694295D02*
X61221065Y-76894295D01*
X61221065Y-77656200D02*
X61125827Y-77694295D01*
X61125827Y-77694295D02*
X60935351Y-77694295D01*
X60935351Y-77694295D02*
X60840113Y-77656200D01*
X60840113Y-77656200D02*
X60792494Y-77618104D01*
X60792494Y-77618104D02*
X60744875Y-77541914D01*
X60744875Y-77541914D02*
X60744875Y-77313342D01*
X60744875Y-77313342D02*
X60792494Y-77237152D01*
X60792494Y-77237152D02*
X60840113Y-77199057D01*
X60840113Y-77199057D02*
X60935351Y-77160961D01*
X60935351Y-77160961D02*
X61125827Y-77160961D01*
X61125827Y-77160961D02*
X61221065Y-77199057D01*
X61459161Y-77770485D02*
X62221065Y-77770485D01*
X62459161Y-77160961D02*
X62459161Y-77960961D01*
X62459161Y-77199057D02*
X62554399Y-77160961D01*
X62554399Y-77160961D02*
X62744875Y-77160961D01*
X62744875Y-77160961D02*
X62840113Y-77199057D01*
X62840113Y-77199057D02*
X62887732Y-77237152D01*
X62887732Y-77237152D02*
X62935351Y-77313342D01*
X62935351Y-77313342D02*
X62935351Y-77541914D01*
X62935351Y-77541914D02*
X62887732Y-77618104D01*
X62887732Y-77618104D02*
X62840113Y-77656200D01*
X62840113Y-77656200D02*
X62744875Y-77694295D01*
X62744875Y-77694295D02*
X62554399Y-77694295D01*
X62554399Y-77694295D02*
X62459161Y-77656200D01*
X63506780Y-77694295D02*
X63411542Y-77656200D01*
X63411542Y-77656200D02*
X63363923Y-77618104D01*
X63363923Y-77618104D02*
X63316304Y-77541914D01*
X63316304Y-77541914D02*
X63316304Y-77313342D01*
X63316304Y-77313342D02*
X63363923Y-77237152D01*
X63363923Y-77237152D02*
X63411542Y-77199057D01*
X63411542Y-77199057D02*
X63506780Y-77160961D01*
X63506780Y-77160961D02*
X63649637Y-77160961D01*
X63649637Y-77160961D02*
X63744875Y-77199057D01*
X63744875Y-77199057D02*
X63792494Y-77237152D01*
X63792494Y-77237152D02*
X63840113Y-77313342D01*
X63840113Y-77313342D02*
X63840113Y-77541914D01*
X63840113Y-77541914D02*
X63792494Y-77618104D01*
X63792494Y-77618104D02*
X63744875Y-77656200D01*
X63744875Y-77656200D02*
X63649637Y-77694295D01*
X63649637Y-77694295D02*
X63506780Y-77694295D01*
X64411542Y-77694295D02*
X64316304Y-77656200D01*
X64316304Y-77656200D02*
X64268685Y-77618104D01*
X64268685Y-77618104D02*
X64221066Y-77541914D01*
X64221066Y-77541914D02*
X64221066Y-77313342D01*
X64221066Y-77313342D02*
X64268685Y-77237152D01*
X64268685Y-77237152D02*
X64316304Y-77199057D01*
X64316304Y-77199057D02*
X64411542Y-77160961D01*
X64411542Y-77160961D02*
X64554399Y-77160961D01*
X64554399Y-77160961D02*
X64649637Y-77199057D01*
X64649637Y-77199057D02*
X64697256Y-77237152D01*
X64697256Y-77237152D02*
X64744875Y-77313342D01*
X64744875Y-77313342D02*
X64744875Y-77541914D01*
X64744875Y-77541914D02*
X64697256Y-77618104D01*
X64697256Y-77618104D02*
X64649637Y-77656200D01*
X64649637Y-77656200D02*
X64554399Y-77694295D01*
X64554399Y-77694295D02*
X64411542Y-77694295D01*
X65173447Y-77160961D02*
X65173447Y-77960961D01*
X65173447Y-77199057D02*
X65268685Y-77160961D01*
X65268685Y-77160961D02*
X65459161Y-77160961D01*
X65459161Y-77160961D02*
X65554399Y-77199057D01*
X65554399Y-77199057D02*
X65602018Y-77237152D01*
X65602018Y-77237152D02*
X65649637Y-77313342D01*
X65649637Y-77313342D02*
X65649637Y-77541914D01*
X65649637Y-77541914D02*
X65602018Y-77618104D01*
X65602018Y-77618104D02*
X65554399Y-77656200D01*
X65554399Y-77656200D02*
X65459161Y-77694295D01*
X65459161Y-77694295D02*
X65268685Y-77694295D01*
X65268685Y-77694295D02*
X65173447Y-77656200D01*
X66459161Y-77656200D02*
X66363923Y-77694295D01*
X66363923Y-77694295D02*
X66173447Y-77694295D01*
X66173447Y-77694295D02*
X66078209Y-77656200D01*
X66078209Y-77656200D02*
X66030590Y-77580009D01*
X66030590Y-77580009D02*
X66030590Y-77275247D01*
X66030590Y-77275247D02*
X66078209Y-77199057D01*
X66078209Y-77199057D02*
X66173447Y-77160961D01*
X66173447Y-77160961D02*
X66363923Y-77160961D01*
X66363923Y-77160961D02*
X66459161Y-77199057D01*
X66459161Y-77199057D02*
X66506780Y-77275247D01*
X66506780Y-77275247D02*
X66506780Y-77351438D01*
X66506780Y-77351438D02*
X66030590Y-77427628D01*
X66935352Y-77694295D02*
X66935352Y-77160961D01*
X66935352Y-77313342D02*
X66982971Y-77237152D01*
X66982971Y-77237152D02*
X67030590Y-77199057D01*
X67030590Y-77199057D02*
X67125828Y-77160961D01*
X67125828Y-77160961D02*
X67221066Y-77160961D01*
D10*
X59698571Y-60804895D02*
X59241428Y-60804895D01*
X59470000Y-60804895D02*
X59470000Y-60004895D01*
X59470000Y-60004895D02*
X59393809Y-60119180D01*
X59393809Y-60119180D02*
X59317619Y-60195371D01*
X59317619Y-60195371D02*
X59241428Y-60233466D01*
G36*
X67590327Y-72509371D02*
G01*
X67613042Y-72542344D01*
X67665799Y-72556999D01*
X67722951Y-72554801D01*
X67758855Y-72532819D01*
X67824068Y-72564326D01*
X67885617Y-72564326D01*
X67942037Y-72564326D01*
X67991130Y-72599497D01*
X68024836Y-72619281D01*
X68050481Y-72647124D01*
X68032896Y-72737250D01*
X67969881Y-72789274D01*
X67923719Y-72789274D01*
X67885617Y-72789274D01*
X67837257Y-72825177D01*
X67758855Y-72836901D01*
X67736140Y-72837634D01*
X67717090Y-72836901D01*
X67701702Y-72849357D01*
X67674591Y-72836901D01*
X67655540Y-72846427D01*
X67632826Y-72861081D01*
X67629895Y-72844228D01*
X67611577Y-72836901D01*
X67613775Y-72851556D01*
X67611577Y-72861081D01*
X67588129Y-72861081D01*
X67573475Y-72861081D01*
X67537571Y-72882330D01*
X67463565Y-72884528D01*
X67425464Y-72952672D01*
X67400551Y-73028876D01*
X67389560Y-73033272D01*
X67379302Y-73049392D01*
X67353656Y-73097020D01*
X67336803Y-73173224D01*
X67233489Y-73276538D01*
X67173752Y-73412072D01*
X67172672Y-73417222D01*
X67104528Y-73442135D01*
X67045910Y-73483168D01*
X67001214Y-73516140D01*
X66940397Y-73541053D01*
X66892037Y-73543251D01*
X66856133Y-73541053D01*
X66733865Y-73459566D01*
X66708122Y-73431144D01*
X66708122Y-73357138D01*
X66708122Y-73286796D01*
X66727173Y-73240635D01*
X66750621Y-73198136D01*
X66760879Y-73145380D01*
X66771870Y-73096287D01*
X66783593Y-73089692D01*
X66792386Y-73070642D01*
X66787990Y-73032540D01*
X66792386Y-72990774D01*
X66804842Y-72984180D01*
X66813635Y-72969525D01*
X66828290Y-72939483D01*
X66834884Y-72905778D01*
X66760879Y-72878667D01*
X66686873Y-72884528D01*
X66539165Y-72868876D01*
X66501493Y-72858883D01*
X66475847Y-72861814D01*
X66455331Y-72858883D01*
X66444340Y-72833970D01*
X66434082Y-72808325D01*
X66376929Y-72795868D01*
X66328569Y-72783412D01*
X66330034Y-72760697D01*
X66328569Y-72732121D01*
X66296329Y-72720397D01*
X66264822Y-72707208D01*
X66239176Y-72661779D01*
X66206203Y-72631004D01*
X66247969Y-72567990D01*
X66307320Y-72529888D01*
X66313182Y-72517431D01*
X66328569Y-72509371D01*
X66362274Y-72509371D01*
X66391584Y-72509371D01*
X66437745Y-72503510D01*
X66501493Y-72509371D01*
X66516147Y-72509371D01*
X66518346Y-72509371D01*
X66536664Y-72509371D01*
X66560844Y-72509371D01*
X66711800Y-72506581D01*
X66750621Y-72507173D01*
X66902295Y-72509198D01*
X66961646Y-72509371D01*
X67005610Y-72436099D01*
X67024661Y-72336448D01*
X67066427Y-72288087D01*
X67088408Y-72209685D01*
X67094270Y-72205289D01*
X67105261Y-72188436D01*
X67104528Y-72170118D01*
X67105261Y-72150334D01*
X67130174Y-72129818D01*
X67151423Y-72108569D01*
X67159483Y-72033098D01*
X67172672Y-71960558D01*
X67206378Y-71905603D01*
X67231290Y-71855045D01*
X67380387Y-71843009D01*
X67396154Y-71840390D01*
X67543600Y-71853256D01*
X67547829Y-71855045D01*
X67566880Y-71874096D01*
X67590327Y-71897543D01*
X67609378Y-71910000D01*
X67643084Y-71937843D01*
X67678988Y-71964954D01*
X67695840Y-71981807D01*
X67695108Y-72013314D01*
X67695840Y-72044822D01*
X67706099Y-72051416D01*
X67717090Y-72066071D01*
X67714159Y-72142274D01*
X67695840Y-72209685D01*
X67682651Y-72216280D01*
X67674591Y-72235331D01*
X67687048Y-72238995D01*
X67695840Y-72255847D01*
X67674591Y-72264640D01*
X67653342Y-72277096D01*
X67645282Y-72338646D01*
X67632826Y-72403859D01*
X67624033Y-72410453D01*
X67611577Y-72425108D01*
X67604982Y-72469071D01*
X67590327Y-72509371D01*
G37*
X61763333Y-60044895D02*
X62258571Y-60044895D01*
X62258571Y-60044895D02*
X61991905Y-60349657D01*
X61991905Y-60349657D02*
X62106190Y-60349657D01*
X62106190Y-60349657D02*
X62182381Y-60387752D01*
X62182381Y-60387752D02*
X62220476Y-60425847D01*
X62220476Y-60425847D02*
X62258571Y-60502038D01*
X62258571Y-60502038D02*
X62258571Y-60692514D01*
X62258571Y-60692514D02*
X62220476Y-60768704D01*
X62220476Y-60768704D02*
X62182381Y-60806800D01*
X62182381Y-60806800D02*
X62106190Y-60844895D01*
X62106190Y-60844895D02*
X61877619Y-60844895D01*
X61877619Y-60844895D02*
X61801428Y-60806800D01*
X61801428Y-60806800D02*
X61763333Y-60768704D01*
D11*
X57446019Y-66061204D02*
X58255542Y-66061204D01*
X58255542Y-66061204D02*
X58350780Y-66013585D01*
X58350780Y-66013585D02*
X58398400Y-65965966D01*
X58398400Y-65965966D02*
X58446019Y-65870728D01*
X58446019Y-65870728D02*
X58446019Y-65680252D01*
X58446019Y-65680252D02*
X58398400Y-65585014D01*
X58398400Y-65585014D02*
X58350780Y-65537395D01*
X58350780Y-65537395D02*
X58255542Y-65489776D01*
X58255542Y-65489776D02*
X57446019Y-65489776D01*
X58446019Y-64489776D02*
X58446019Y-65061204D01*
X58446019Y-64775490D02*
X57446019Y-64775490D01*
X57446019Y-64775490D02*
X57588876Y-64870728D01*
X57588876Y-64870728D02*
X57684114Y-64965966D01*
X57684114Y-64965966D02*
X57731733Y-65061204D01*
D10*
X57596667Y-75864895D02*
X57330000Y-75483942D01*
X57139524Y-75864895D02*
X57139524Y-75064895D01*
X57139524Y-75064895D02*
X57444286Y-75064895D01*
X57444286Y-75064895D02*
X57520476Y-75102990D01*
X57520476Y-75102990D02*
X57558571Y-75141085D01*
X57558571Y-75141085D02*
X57596667Y-75217276D01*
X57596667Y-75217276D02*
X57596667Y-75331561D01*
X57596667Y-75331561D02*
X57558571Y-75407752D01*
X57558571Y-75407752D02*
X57520476Y-75445847D01*
X57520476Y-75445847D02*
X57444286Y-75483942D01*
X57444286Y-75483942D02*
X57139524Y-75483942D01*
X58282381Y-75331561D02*
X58282381Y-75864895D01*
X58091905Y-75026800D02*
X57901428Y-75598228D01*
X57901428Y-75598228D02*
X58396667Y-75598228D01*
X56406667Y-56554895D02*
X56140000Y-56173942D01*
X55949524Y-56554895D02*
X55949524Y-55754895D01*
X55949524Y-55754895D02*
X56254286Y-55754895D01*
X56254286Y-55754895D02*
X56330476Y-55792990D01*
X56330476Y-55792990D02*
X56368571Y-55831085D01*
X56368571Y-55831085D02*
X56406667Y-55907276D01*
X56406667Y-55907276D02*
X56406667Y-56021561D01*
X56406667Y-56021561D02*
X56368571Y-56097752D01*
X56368571Y-56097752D02*
X56330476Y-56135847D01*
X56330476Y-56135847D02*
X56254286Y-56173942D01*
X56254286Y-56173942D02*
X55949524Y-56173942D01*
X56711428Y-55831085D02*
X56749524Y-55792990D01*
X56749524Y-55792990D02*
X56825714Y-55754895D01*
X56825714Y-55754895D02*
X57016190Y-55754895D01*
X57016190Y-55754895D02*
X57092381Y-55792990D01*
X57092381Y-55792990D02*
X57130476Y-55831085D01*
X57130476Y-55831085D02*
X57168571Y-55907276D01*
X57168571Y-55907276D02*
X57168571Y-55983466D01*
X57168571Y-55983466D02*
X57130476Y-56097752D01*
X57130476Y-56097752D02*
X56673333Y-56554895D01*
X56673333Y-56554895D02*
X57168571Y-56554895D01*
X54426667Y-56574895D02*
X54160000Y-56193942D01*
X53969524Y-56574895D02*
X53969524Y-55774895D01*
X53969524Y-55774895D02*
X54274286Y-55774895D01*
X54274286Y-55774895D02*
X54350476Y-55812990D01*
X54350476Y-55812990D02*
X54388571Y-55851085D01*
X54388571Y-55851085D02*
X54426667Y-55927276D01*
X54426667Y-55927276D02*
X54426667Y-56041561D01*
X54426667Y-56041561D02*
X54388571Y-56117752D01*
X54388571Y-56117752D02*
X54350476Y-56155847D01*
X54350476Y-56155847D02*
X54274286Y-56193942D01*
X54274286Y-56193942D02*
X53969524Y-56193942D01*
X54693333Y-55774895D02*
X55188571Y-55774895D01*
X55188571Y-55774895D02*
X54921905Y-56079657D01*
X54921905Y-56079657D02*
X55036190Y-56079657D01*
X55036190Y-56079657D02*
X55112381Y-56117752D01*
X55112381Y-56117752D02*
X55150476Y-56155847D01*
X55150476Y-56155847D02*
X55188571Y-56232038D01*
X55188571Y-56232038D02*
X55188571Y-56422514D01*
X55188571Y-56422514D02*
X55150476Y-56498704D01*
X55150476Y-56498704D02*
X55112381Y-56536800D01*
X55112381Y-56536800D02*
X55036190Y-56574895D01*
X55036190Y-56574895D02*
X54807619Y-56574895D01*
X54807619Y-56574895D02*
X54731428Y-56536800D01*
X54731428Y-56536800D02*
X54693333Y-56498704D01*
X73901333Y-72208895D02*
X73901333Y-72780323D01*
X73901333Y-72780323D02*
X73863238Y-72894609D01*
X73863238Y-72894609D02*
X73787047Y-72970800D01*
X73787047Y-72970800D02*
X73672762Y-73008895D01*
X73672762Y-73008895D02*
X73596571Y-73008895D01*
X74244190Y-72285085D02*
X74282286Y-72246990D01*
X74282286Y-72246990D02*
X74358476Y-72208895D01*
X74358476Y-72208895D02*
X74548952Y-72208895D01*
X74548952Y-72208895D02*
X74625143Y-72246990D01*
X74625143Y-72246990D02*
X74663238Y-72285085D01*
X74663238Y-72285085D02*
X74701333Y-72361276D01*
X74701333Y-72361276D02*
X74701333Y-72437466D01*
X74701333Y-72437466D02*
X74663238Y-72551752D01*
X74663238Y-72551752D02*
X74206095Y-73008895D01*
X74206095Y-73008895D02*
X74701333Y-73008895D01*
D11*
X45289524Y-59602295D02*
X45289524Y-60249914D01*
X45289524Y-60249914D02*
X45327619Y-60326104D01*
X45327619Y-60326104D02*
X45365714Y-60364200D01*
X45365714Y-60364200D02*
X45441905Y-60402295D01*
X45441905Y-60402295D02*
X45594286Y-60402295D01*
X45594286Y-60402295D02*
X45670476Y-60364200D01*
X45670476Y-60364200D02*
X45708571Y-60326104D01*
X45708571Y-60326104D02*
X45746667Y-60249914D01*
X45746667Y-60249914D02*
X45746667Y-59602295D01*
X46089523Y-60364200D02*
X46203809Y-60402295D01*
X46203809Y-60402295D02*
X46394285Y-60402295D01*
X46394285Y-60402295D02*
X46470476Y-60364200D01*
X46470476Y-60364200D02*
X46508571Y-60326104D01*
X46508571Y-60326104D02*
X46546666Y-60249914D01*
X46546666Y-60249914D02*
X46546666Y-60173723D01*
X46546666Y-60173723D02*
X46508571Y-60097533D01*
X46508571Y-60097533D02*
X46470476Y-60059438D01*
X46470476Y-60059438D02*
X46394285Y-60021342D01*
X46394285Y-60021342D02*
X46241904Y-59983247D01*
X46241904Y-59983247D02*
X46165714Y-59945152D01*
X46165714Y-59945152D02*
X46127619Y-59907057D01*
X46127619Y-59907057D02*
X46089523Y-59830866D01*
X46089523Y-59830866D02*
X46089523Y-59754676D01*
X46089523Y-59754676D02*
X46127619Y-59678485D01*
X46127619Y-59678485D02*
X46165714Y-59640390D01*
X46165714Y-59640390D02*
X46241904Y-59602295D01*
X46241904Y-59602295D02*
X46432381Y-59602295D01*
X46432381Y-59602295D02*
X46546666Y-59640390D01*
X47156190Y-59983247D02*
X47270476Y-60021342D01*
X47270476Y-60021342D02*
X47308571Y-60059438D01*
X47308571Y-60059438D02*
X47346667Y-60135628D01*
X47346667Y-60135628D02*
X47346667Y-60249914D01*
X47346667Y-60249914D02*
X47308571Y-60326104D01*
X47308571Y-60326104D02*
X47270476Y-60364200D01*
X47270476Y-60364200D02*
X47194286Y-60402295D01*
X47194286Y-60402295D02*
X46889524Y-60402295D01*
X46889524Y-60402295D02*
X46889524Y-59602295D01*
X46889524Y-59602295D02*
X47156190Y-59602295D01*
X47156190Y-59602295D02*
X47232381Y-59640390D01*
X47232381Y-59640390D02*
X47270476Y-59678485D01*
X47270476Y-59678485D02*
X47308571Y-59754676D01*
X47308571Y-59754676D02*
X47308571Y-59830866D01*
X47308571Y-59830866D02*
X47270476Y-59907057D01*
X47270476Y-59907057D02*
X47232381Y-59945152D01*
X47232381Y-59945152D02*
X47156190Y-59983247D01*
X47156190Y-59983247D02*
X46889524Y-59983247D01*
X48108571Y-60402295D02*
X47651428Y-60402295D01*
X47880000Y-60402295D02*
X47880000Y-59602295D01*
X47880000Y-59602295D02*
X47803809Y-59716580D01*
X47803809Y-59716580D02*
X47727619Y-59792771D01*
X47727619Y-59792771D02*
X47651428Y-59830866D01*
X56926104Y-58855832D02*
X56964200Y-58893928D01*
X56964200Y-58893928D02*
X57002295Y-59008213D01*
X57002295Y-59008213D02*
X57002295Y-59084404D01*
X57002295Y-59084404D02*
X56964200Y-59198690D01*
X56964200Y-59198690D02*
X56888009Y-59274880D01*
X56888009Y-59274880D02*
X56811819Y-59312975D01*
X56811819Y-59312975D02*
X56659438Y-59351071D01*
X56659438Y-59351071D02*
X56545152Y-59351071D01*
X56545152Y-59351071D02*
X56392771Y-59312975D01*
X56392771Y-59312975D02*
X56316580Y-59274880D01*
X56316580Y-59274880D02*
X56240390Y-59198690D01*
X56240390Y-59198690D02*
X56202295Y-59084404D01*
X56202295Y-59084404D02*
X56202295Y-59008213D01*
X56202295Y-59008213D02*
X56240390Y-58893928D01*
X56240390Y-58893928D02*
X56278485Y-58855832D01*
X57002295Y-58093928D02*
X57002295Y-58551071D01*
X57002295Y-58322499D02*
X56202295Y-58322499D01*
X56202295Y-58322499D02*
X56316580Y-58398690D01*
X56316580Y-58398690D02*
X56392771Y-58474880D01*
X56392771Y-58474880D02*
X56430866Y-58551071D01*
D10*
X53496667Y-75864895D02*
X53230000Y-75483942D01*
X53039524Y-75864895D02*
X53039524Y-75064895D01*
X53039524Y-75064895D02*
X53344286Y-75064895D01*
X53344286Y-75064895D02*
X53420476Y-75102990D01*
X53420476Y-75102990D02*
X53458571Y-75141085D01*
X53458571Y-75141085D02*
X53496667Y-75217276D01*
X53496667Y-75217276D02*
X53496667Y-75331561D01*
X53496667Y-75331561D02*
X53458571Y-75407752D01*
X53458571Y-75407752D02*
X53420476Y-75445847D01*
X53420476Y-75445847D02*
X53344286Y-75483942D01*
X53344286Y-75483942D02*
X53039524Y-75483942D01*
X54220476Y-75064895D02*
X53839524Y-75064895D01*
X53839524Y-75064895D02*
X53801428Y-75445847D01*
X53801428Y-75445847D02*
X53839524Y-75407752D01*
X53839524Y-75407752D02*
X53915714Y-75369657D01*
X53915714Y-75369657D02*
X54106190Y-75369657D01*
X54106190Y-75369657D02*
X54182381Y-75407752D01*
X54182381Y-75407752D02*
X54220476Y-75445847D01*
X54220476Y-75445847D02*
X54258571Y-75522038D01*
X54258571Y-75522038D02*
X54258571Y-75712514D01*
X54258571Y-75712514D02*
X54220476Y-75788704D01*
X54220476Y-75788704D02*
X54182381Y-75826800D01*
X54182381Y-75826800D02*
X54106190Y-75864895D01*
X54106190Y-75864895D02*
X53915714Y-75864895D01*
X53915714Y-75864895D02*
X53839524Y-75826800D01*
X53839524Y-75826800D02*
X53801428Y-75788704D01*
X55436667Y-75864895D02*
X55170000Y-75483942D01*
X54979524Y-75864895D02*
X54979524Y-75064895D01*
X54979524Y-75064895D02*
X55284286Y-75064895D01*
X55284286Y-75064895D02*
X55360476Y-75102990D01*
X55360476Y-75102990D02*
X55398571Y-75141085D01*
X55398571Y-75141085D02*
X55436667Y-75217276D01*
X55436667Y-75217276D02*
X55436667Y-75331561D01*
X55436667Y-75331561D02*
X55398571Y-75407752D01*
X55398571Y-75407752D02*
X55360476Y-75445847D01*
X55360476Y-75445847D02*
X55284286Y-75483942D01*
X55284286Y-75483942D02*
X54979524Y-75483942D01*
X56198571Y-75864895D02*
X55741428Y-75864895D01*
X55970000Y-75864895D02*
X55970000Y-75064895D01*
X55970000Y-75064895D02*
X55893809Y-75179180D01*
X55893809Y-75179180D02*
X55817619Y-75255371D01*
X55817619Y-75255371D02*
X55741428Y-75293466D01*
X55506667Y-70344895D02*
X55240000Y-69963942D01*
X55049524Y-70344895D02*
X55049524Y-69544895D01*
X55049524Y-69544895D02*
X55354286Y-69544895D01*
X55354286Y-69544895D02*
X55430476Y-69582990D01*
X55430476Y-69582990D02*
X55468571Y-69621085D01*
X55468571Y-69621085D02*
X55506667Y-69697276D01*
X55506667Y-69697276D02*
X55506667Y-69811561D01*
X55506667Y-69811561D02*
X55468571Y-69887752D01*
X55468571Y-69887752D02*
X55430476Y-69925847D01*
X55430476Y-69925847D02*
X55354286Y-69963942D01*
X55354286Y-69963942D02*
X55049524Y-69963942D01*
X56192381Y-69544895D02*
X56040000Y-69544895D01*
X56040000Y-69544895D02*
X55963809Y-69582990D01*
X55963809Y-69582990D02*
X55925714Y-69621085D01*
X55925714Y-69621085D02*
X55849524Y-69735371D01*
X55849524Y-69735371D02*
X55811428Y-69887752D01*
X55811428Y-69887752D02*
X55811428Y-70192514D01*
X55811428Y-70192514D02*
X55849524Y-70268704D01*
X55849524Y-70268704D02*
X55887619Y-70306800D01*
X55887619Y-70306800D02*
X55963809Y-70344895D01*
X55963809Y-70344895D02*
X56116190Y-70344895D01*
X56116190Y-70344895D02*
X56192381Y-70306800D01*
X56192381Y-70306800D02*
X56230476Y-70268704D01*
X56230476Y-70268704D02*
X56268571Y-70192514D01*
X56268571Y-70192514D02*
X56268571Y-70002038D01*
X56268571Y-70002038D02*
X56230476Y-69925847D01*
X56230476Y-69925847D02*
X56192381Y-69887752D01*
X56192381Y-69887752D02*
X56116190Y-69849657D01*
X56116190Y-69849657D02*
X55963809Y-69849657D01*
X55963809Y-69849657D02*
X55887619Y-69887752D01*
X55887619Y-69887752D02*
X55849524Y-69925847D01*
X55849524Y-69925847D02*
X55811428Y-70002038D01*
X63163524Y-75802895D02*
X63163524Y-75002895D01*
X63163524Y-75002895D02*
X63354000Y-75002895D01*
X63354000Y-75002895D02*
X63468286Y-75040990D01*
X63468286Y-75040990D02*
X63544476Y-75117180D01*
X63544476Y-75117180D02*
X63582571Y-75193371D01*
X63582571Y-75193371D02*
X63620667Y-75345752D01*
X63620667Y-75345752D02*
X63620667Y-75460038D01*
X63620667Y-75460038D02*
X63582571Y-75612419D01*
X63582571Y-75612419D02*
X63544476Y-75688609D01*
X63544476Y-75688609D02*
X63468286Y-75764800D01*
X63468286Y-75764800D02*
X63354000Y-75802895D01*
X63354000Y-75802895D02*
X63163524Y-75802895D01*
X64382571Y-75802895D02*
X63925428Y-75802895D01*
X64154000Y-75802895D02*
X64154000Y-75002895D01*
X64154000Y-75002895D02*
X64077809Y-75117180D01*
X64077809Y-75117180D02*
X64001619Y-75193371D01*
X64001619Y-75193371D02*
X63925428Y-75231466D01*
X61713332Y-71016800D02*
X61827618Y-71054895D01*
X61827618Y-71054895D02*
X62018094Y-71054895D01*
X62018094Y-71054895D02*
X62094285Y-71016800D01*
X62094285Y-71016800D02*
X62132380Y-70978704D01*
X62132380Y-70978704D02*
X62170475Y-70902514D01*
X62170475Y-70902514D02*
X62170475Y-70826323D01*
X62170475Y-70826323D02*
X62132380Y-70750133D01*
X62132380Y-70750133D02*
X62094285Y-70712038D01*
X62094285Y-70712038D02*
X62018094Y-70673942D01*
X62018094Y-70673942D02*
X61865713Y-70635847D01*
X61865713Y-70635847D02*
X61789523Y-70597752D01*
X61789523Y-70597752D02*
X61751428Y-70559657D01*
X61751428Y-70559657D02*
X61713332Y-70483466D01*
X61713332Y-70483466D02*
X61713332Y-70407276D01*
X61713332Y-70407276D02*
X61751428Y-70331085D01*
X61751428Y-70331085D02*
X61789523Y-70292990D01*
X61789523Y-70292990D02*
X61865713Y-70254895D01*
X61865713Y-70254895D02*
X62056190Y-70254895D01*
X62056190Y-70254895D02*
X62170475Y-70292990D01*
X62437142Y-70254895D02*
X62627618Y-71054895D01*
X62627618Y-71054895D02*
X62779999Y-70483466D01*
X62779999Y-70483466D02*
X62932380Y-71054895D01*
X62932380Y-71054895D02*
X63122857Y-70254895D01*
X63846666Y-71054895D02*
X63389523Y-71054895D01*
X63618095Y-71054895D02*
X63618095Y-70254895D01*
X63618095Y-70254895D02*
X63541904Y-70369180D01*
X63541904Y-70369180D02*
X63465714Y-70445371D01*
X63465714Y-70445371D02*
X63389523Y-70483466D01*
X56570550Y-63546895D02*
X56494360Y-63508800D01*
X56494360Y-63508800D02*
X56456265Y-63470704D01*
X56456265Y-63470704D02*
X56418169Y-63394514D01*
X56418169Y-63394514D02*
X56418169Y-63165942D01*
X56418169Y-63165942D02*
X56456265Y-63089752D01*
X56456265Y-63089752D02*
X56494360Y-63051657D01*
X56494360Y-63051657D02*
X56570550Y-63013561D01*
X56570550Y-63013561D02*
X56684836Y-63013561D01*
X56684836Y-63013561D02*
X56761027Y-63051657D01*
X56761027Y-63051657D02*
X56799122Y-63089752D01*
X56799122Y-63089752D02*
X56837217Y-63165942D01*
X56837217Y-63165942D02*
X56837217Y-63394514D01*
X56837217Y-63394514D02*
X56799122Y-63470704D01*
X56799122Y-63470704D02*
X56761027Y-63508800D01*
X56761027Y-63508800D02*
X56684836Y-63546895D01*
X56684836Y-63546895D02*
X56570550Y-63546895D01*
X57180075Y-63013561D02*
X57180075Y-63546895D01*
X57180075Y-63089752D02*
X57218170Y-63051657D01*
X57218170Y-63051657D02*
X57294360Y-63013561D01*
X57294360Y-63013561D02*
X57408646Y-63013561D01*
X57408646Y-63013561D02*
X57484837Y-63051657D01*
X57484837Y-63051657D02*
X57522932Y-63127847D01*
X57522932Y-63127847D02*
X57522932Y-63546895D01*
D13*
X41706916Y-72560790D02*
X41575682Y-72560790D01*
X41575682Y-72767014D02*
X41575682Y-72373313D01*
X41575682Y-72373313D02*
X41763159Y-72373313D01*
X42044374Y-72560790D02*
X42100617Y-72579538D01*
X42100617Y-72579538D02*
X42119364Y-72598285D01*
X42119364Y-72598285D02*
X42138112Y-72635781D01*
X42138112Y-72635781D02*
X42138112Y-72692024D01*
X42138112Y-72692024D02*
X42119364Y-72729519D01*
X42119364Y-72729519D02*
X42100617Y-72748267D01*
X42100617Y-72748267D02*
X42063121Y-72767014D01*
X42063121Y-72767014D02*
X41913140Y-72767014D01*
X41913140Y-72767014D02*
X41913140Y-72373313D01*
X41913140Y-72373313D02*
X42044374Y-72373313D01*
X42044374Y-72373313D02*
X42081869Y-72392061D01*
X42081869Y-72392061D02*
X42100617Y-72410809D01*
X42100617Y-72410809D02*
X42119364Y-72448304D01*
X42119364Y-72448304D02*
X42119364Y-72485799D01*
X42119364Y-72485799D02*
X42100617Y-72523295D01*
X42100617Y-72523295D02*
X42081869Y-72542042D01*
X42081869Y-72542042D02*
X42044374Y-72560790D01*
X42044374Y-72560790D02*
X41913140Y-72560790D01*
X42513065Y-72767014D02*
X42288093Y-72767014D01*
X42400579Y-72767014D02*
X42400579Y-72373313D01*
X42400579Y-72373313D02*
X42363084Y-72429556D01*
X42363084Y-72429556D02*
X42325589Y-72467052D01*
X42325589Y-72467052D02*
X42288093Y-72485799D01*
D14*
%TO.C,U1*%
X57151200Y-65299300D02*
X57151200Y-63349300D01*
X57151200Y-65299300D02*
X57151200Y-67249300D01*
X52031200Y-65299300D02*
X52031200Y-63349300D01*
X52031200Y-65299300D02*
X52031200Y-67249300D01*
X57481200Y-62826800D02*
X57151200Y-62586800D01*
X57481200Y-62346800D01*
X57481200Y-62826800D01*
G36*
X57481200Y-62826800D02*
G01*
X57151200Y-62586800D01*
X57481200Y-62346800D01*
X57481200Y-62826800D01*
G37*
%TO.C,R4*%
X58865000Y-72997064D02*
X58865000Y-72542936D01*
X60335000Y-72997064D02*
X60335000Y-72542936D01*
%TO.C,R2*%
X55615000Y-58692936D02*
X55615000Y-59147064D01*
X57085000Y-58692936D02*
X57085000Y-59147064D01*
%TO.C,R3*%
X53675000Y-58712936D02*
X53675000Y-59167064D01*
X55145000Y-58712936D02*
X55145000Y-59167064D01*
%TO.C,J2*%
X64539000Y-60770000D02*
X74460000Y-60770000D01*
X64539000Y-71050000D02*
X64539000Y-60770000D01*
X64539000Y-71050000D02*
X74460000Y-71050000D01*
X67499000Y-71050000D02*
X67499000Y-60770000D01*
X68525000Y-62300000D02*
X68561000Y-62335000D01*
X68731000Y-62095000D02*
X68777000Y-62142000D01*
X70823000Y-64597000D02*
X70869000Y-64644000D01*
X71039000Y-64404000D02*
X71074000Y-64439000D01*
X72400000Y-71050000D02*
X72400000Y-60770000D01*
X73900000Y-71050000D02*
X73900000Y-60770000D01*
X73960000Y-71290000D02*
X74700000Y-71290000D01*
X74460000Y-71050000D02*
X74460000Y-60770000D01*
X74700000Y-71290000D02*
X74700000Y-70790000D01*
X68264573Y-69133042D02*
G75*
G02*
X68265000Y-67766000I1535420J683041D01*
G01*
X69116958Y-66914573D02*
G75*
G02*
X70484000Y-66915000I683042J-1535427D01*
G01*
X70483042Y-69985427D02*
G75*
G02*
X69116000Y-69985000I-683041J1535420D01*
G01*
X71334756Y-67766682D02*
G75*
G02*
X71480000Y-68450000I-1534756J-683318D01*
G01*
X71480253Y-68421195D02*
G75*
G02*
X71335000Y-69134000I-1680254J-28806D01*
G01*
X71480000Y-63370000D02*
G75*
G02*
X68120000Y-63370000I-1680000J0D01*
G01*
X68120000Y-63370000D02*
G75*
G02*
X71480000Y-63370000I1680000J0D01*
G01*
%TO.C,C1*%
X57560000Y-58868767D02*
X57560000Y-58576233D01*
X58580000Y-58868767D02*
X58580000Y-58576233D01*
%TO.C,R5*%
X52995000Y-72967064D02*
X52995000Y-72512936D01*
X54465000Y-72967064D02*
X54465000Y-72512936D01*
%TO.C,R1*%
X54955000Y-72947064D02*
X54955000Y-72492936D01*
X56425000Y-72947064D02*
X56425000Y-72492936D01*
D15*
%TO.C,SYM1*%
X46718552Y-71090804D02*
X46797096Y-71091234D01*
X46853940Y-71092398D01*
X46892747Y-71094663D01*
X46917180Y-71098396D01*
X46930904Y-71103962D01*
X46937582Y-71111729D01*
X46940878Y-71122061D01*
X46941198Y-71123399D01*
X46946204Y-71147535D01*
X46955471Y-71195157D01*
X46968034Y-71261197D01*
X46982929Y-71340584D01*
X46999193Y-71428252D01*
X46999761Y-71431331D01*
X47016052Y-71517245D01*
X47031294Y-71593152D01*
X47044503Y-71654501D01*
X47054696Y-71696738D01*
X47060890Y-71715311D01*
X47061185Y-71715640D01*
X47079430Y-71724709D01*
X47117047Y-71739823D01*
X47165913Y-71757718D01*
X47166185Y-71757814D01*
X47227735Y-71780949D01*
X47300299Y-71810421D01*
X47368699Y-71840053D01*
X47371936Y-71841518D01*
X47483344Y-71892082D01*
X47730041Y-71723616D01*
X47805719Y-71672259D01*
X47874273Y-71626345D01*
X47931730Y-71588486D01*
X47974118Y-71561293D01*
X47997467Y-71547377D01*
X47999684Y-71546345D01*
X48016652Y-71550940D01*
X48048343Y-71573111D01*
X48095994Y-71613903D01*
X48160840Y-71674361D01*
X48227039Y-71738683D01*
X48290856Y-71802068D01*
X48347971Y-71859907D01*
X48394947Y-71908631D01*
X48428345Y-71944666D01*
X48444727Y-71964440D01*
X48445336Y-71965458D01*
X48447147Y-71979028D01*
X48440325Y-72001189D01*
X48423182Y-72034934D01*
X48394035Y-72083256D01*
X48351197Y-72149148D01*
X48294090Y-72233973D01*
X48243408Y-72308633D01*
X48198103Y-72375596D01*
X48160792Y-72430972D01*
X48134094Y-72470876D01*
X48120627Y-72491418D01*
X48119779Y-72492812D01*
X48121423Y-72512494D01*
X48133887Y-72550749D01*
X48154690Y-72600345D01*
X48162104Y-72616184D01*
X48194456Y-72686746D01*
X48228970Y-72766809D01*
X48257007Y-72836085D01*
X48277210Y-72887501D01*
X48293257Y-72926575D01*
X48302530Y-72946997D01*
X48303683Y-72948570D01*
X48320738Y-72951177D01*
X48360940Y-72958319D01*
X48418944Y-72968979D01*
X48489405Y-72982141D01*
X48566977Y-72996789D01*
X48646314Y-73011905D01*
X48722073Y-73026474D01*
X48788906Y-73039478D01*
X48841470Y-73049901D01*
X48874418Y-73056726D01*
X48882499Y-73058655D01*
X48890847Y-73063418D01*
X48897148Y-73074174D01*
X48901687Y-73094554D01*
X48904746Y-73128190D01*
X48906609Y-73178711D01*
X48907560Y-73249748D01*
X48907882Y-73344932D01*
X48907899Y-73383948D01*
X48907899Y-73701255D01*
X48831699Y-73716295D01*
X48789305Y-73724451D01*
X48726042Y-73736355D01*
X48649604Y-73750572D01*
X48567685Y-73765666D01*
X48545042Y-73769811D01*
X48469448Y-73784509D01*
X48403595Y-73798961D01*
X48353008Y-73811831D01*
X48323216Y-73821778D01*
X48318254Y-73824743D01*
X48306068Y-73845739D01*
X48288595Y-73886423D01*
X48269219Y-73938778D01*
X48265376Y-73950056D01*
X48239981Y-74019979D01*
X48208459Y-74098874D01*
X48177611Y-74169722D01*
X48177459Y-74170051D01*
X48126089Y-74281189D01*
X48295041Y-74529709D01*
X48463994Y-74778228D01*
X48247071Y-74995514D01*
X48181461Y-75060182D01*
X48121621Y-75117189D01*
X48070909Y-75163489D01*
X48032688Y-75196040D01*
X48010317Y-75211799D01*
X48007108Y-75212799D01*
X47988268Y-75204925D01*
X47949822Y-75183034D01*
X47895972Y-75149723D01*
X47830918Y-75107587D01*
X47760582Y-75060399D01*
X47689197Y-75012266D01*
X47625550Y-74970384D01*
X47573683Y-74937327D01*
X47537637Y-74915674D01*
X47521509Y-74907999D01*
X47501831Y-74914493D01*
X47464517Y-74931606D01*
X47417263Y-74955782D01*
X47412254Y-74958469D01*
X47348619Y-74990383D01*
X47304983Y-75006035D01*
X47277844Y-75006201D01*
X47263699Y-74991660D01*
X47263617Y-74991456D01*
X47256547Y-74974235D01*
X47239684Y-74933355D01*
X47214337Y-74871981D01*
X47181813Y-74793275D01*
X47143420Y-74700403D01*
X47100464Y-74596528D01*
X47058864Y-74495958D01*
X47013146Y-74384972D01*
X46971168Y-74282159D01*
X46934190Y-74190671D01*
X46903469Y-74113657D01*
X46880264Y-74054271D01*
X46865832Y-74015665D01*
X46861385Y-74001256D01*
X46872538Y-73984728D01*
X46901711Y-73958386D01*
X46940613Y-73929343D01*
X47051399Y-73837495D01*
X47137993Y-73732215D01*
X47199358Y-73615722D01*
X47234457Y-73490232D01*
X47242250Y-73357963D01*
X47236585Y-73296913D01*
X47205720Y-73170251D01*
X47152562Y-73058397D01*
X47080409Y-72962457D01*
X46992559Y-72883532D01*
X46892307Y-72822726D01*
X46782952Y-72781143D01*
X46667789Y-72759884D01*
X46550117Y-72760055D01*
X46433232Y-72782757D01*
X46320431Y-72829094D01*
X46215011Y-72900169D01*
X46171010Y-72940367D01*
X46086621Y-73043585D01*
X46027864Y-73156381D01*
X45994346Y-73275466D01*
X45985677Y-73397551D01*
X46001465Y-73519349D01*
X46041320Y-73637572D01*
X46104849Y-73748931D01*
X46191663Y-73850140D01*
X46288671Y-73929343D01*
X46329079Y-73959618D01*
X46357624Y-73985675D01*
X46367899Y-74001281D01*
X46362519Y-74018299D01*
X46347217Y-74058956D01*
X46323254Y-74120098D01*
X46291886Y-74198575D01*
X46254374Y-74291236D01*
X46211975Y-74394928D01*
X46170305Y-74495982D01*
X46124332Y-74607063D01*
X46081749Y-74709997D01*
X46043863Y-74801621D01*
X46011982Y-74878772D01*
X45987413Y-74938287D01*
X45971462Y-74977000D01*
X45965552Y-74991456D01*
X45951590Y-75006141D01*
X45924582Y-75006098D01*
X45881055Y-74990555D01*
X45817532Y-74958740D01*
X45817030Y-74958469D01*
X45769202Y-74933779D01*
X45730539Y-74915794D01*
X45708737Y-74908070D01*
X45707775Y-74907999D01*
X45691363Y-74915834D01*
X45655129Y-74937621D01*
X45603116Y-74970784D01*
X45539367Y-75012747D01*
X45468702Y-75060399D01*
X45396758Y-75108647D01*
X45331916Y-75150607D01*
X45278377Y-75183683D01*
X45240339Y-75205277D01*
X45222175Y-75212799D01*
X45205450Y-75202913D01*
X45171822Y-75175282D01*
X45124652Y-75132951D01*
X45067300Y-75078961D01*
X45003126Y-75016355D01*
X44982139Y-74995439D01*
X44765141Y-74778079D01*
X44930310Y-74535676D01*
X44980506Y-74461237D01*
X45024561Y-74394428D01*
X45060004Y-74339121D01*
X45084361Y-74299185D01*
X45095164Y-74278492D01*
X45095480Y-74277019D01*
X45089785Y-74257514D01*
X45074468Y-74218278D01*
X45052179Y-74165886D01*
X45036535Y-74130811D01*
X45007283Y-74063657D01*
X44979736Y-73995814D01*
X44958379Y-73938490D01*
X44952577Y-73921028D01*
X44936094Y-73874394D01*
X44919982Y-73838361D01*
X44911132Y-73824743D01*
X44891602Y-73816408D01*
X44848976Y-73804593D01*
X44788787Y-73790637D01*
X44716564Y-73775878D01*
X44684242Y-73769811D01*
X44602164Y-73754729D01*
X44523437Y-73740125D01*
X44455751Y-73727436D01*
X44406802Y-73718098D01*
X44397585Y-73716295D01*
X44321385Y-73701255D01*
X44321385Y-73383948D01*
X44321556Y-73279610D01*
X44322258Y-73200669D01*
X44323776Y-73143494D01*
X44326391Y-73104455D01*
X44330388Y-73079921D01*
X44336051Y-73066261D01*
X44343662Y-73059845D01*
X44346785Y-73058655D01*
X44365620Y-73054436D01*
X44407230Y-73046018D01*
X44466272Y-73034417D01*
X44537399Y-73020651D01*
X44615267Y-73005736D01*
X44694529Y-72990688D01*
X44769840Y-72976525D01*
X44835855Y-72964262D01*
X44887229Y-72954917D01*
X44918617Y-72949506D01*
X44925601Y-72948570D01*
X44931927Y-72936052D01*
X44945932Y-72902702D01*
X44964997Y-72854833D01*
X44972276Y-72836085D01*
X45001638Y-72763651D01*
X45036213Y-72683626D01*
X45067179Y-72616184D01*
X45089965Y-72564615D01*
X45105124Y-72522241D01*
X45110184Y-72496290D01*
X45109378Y-72492812D01*
X45098683Y-72476392D01*
X45074262Y-72439873D01*
X45038737Y-72387143D01*
X44994729Y-72322091D01*
X44944859Y-72248607D01*
X44934998Y-72234101D01*
X44877134Y-72148160D01*
X44834598Y-72082717D01*
X44805696Y-72034760D01*
X44788732Y-72001276D01*
X44782009Y-71979251D01*
X44783832Y-71965673D01*
X44783878Y-71965587D01*
X44798228Y-71947753D01*
X44829965Y-71913273D01*
X44875652Y-71865724D01*
X44931846Y-71808678D01*
X44995110Y-71745711D01*
X45002244Y-71738683D01*
X45081972Y-71661476D01*
X45143499Y-71604786D01*
X45188063Y-71567566D01*
X45216899Y-71548771D01*
X45229600Y-71546345D01*
X45248136Y-71556927D01*
X45286603Y-71581372D01*
X45341028Y-71617068D01*
X45407440Y-71661403D01*
X45481867Y-71711767D01*
X45499243Y-71723616D01*
X45745939Y-71892082D01*
X45857348Y-71841518D01*
X45925099Y-71812051D01*
X45997825Y-71782415D01*
X46060345Y-71758786D01*
X46063099Y-71757814D01*
X46112002Y-71739913D01*
X46149699Y-71724776D01*
X46168067Y-71715666D01*
X46168098Y-71715640D01*
X46173927Y-71699173D01*
X46183834Y-71658675D01*
X46196837Y-71598698D01*
X46211951Y-71523796D01*
X46228194Y-71438520D01*
X46229523Y-71431331D01*
X46245817Y-71343470D01*
X46260775Y-71263716D01*
X46273433Y-71197137D01*
X46282828Y-71148803D01*
X46287996Y-71123781D01*
X46288086Y-71123399D01*
X46291231Y-71112755D01*
X46297346Y-71104718D01*
X46310095Y-71098923D01*
X46333142Y-71095003D01*
X46370151Y-71092591D01*
X46424786Y-71091321D01*
X46500709Y-71090827D01*
X46601586Y-71090742D01*
X46614642Y-71090742D01*
X46718552Y-71090804D01*
G36*
X46718552Y-71090804D02*
G01*
X46797096Y-71091234D01*
X46853940Y-71092398D01*
X46892747Y-71094663D01*
X46917180Y-71098396D01*
X46930904Y-71103962D01*
X46937582Y-71111729D01*
X46940878Y-71122061D01*
X46941198Y-71123399D01*
X46946204Y-71147535D01*
X46955471Y-71195157D01*
X46968034Y-71261197D01*
X46982929Y-71340584D01*
X46999193Y-71428252D01*
X46999761Y-71431331D01*
X47016052Y-71517245D01*
X47031294Y-71593152D01*
X47044503Y-71654501D01*
X47054696Y-71696738D01*
X47060890Y-71715311D01*
X47061185Y-71715640D01*
X47079430Y-71724709D01*
X47117047Y-71739823D01*
X47165913Y-71757718D01*
X47166185Y-71757814D01*
X47227735Y-71780949D01*
X47300299Y-71810421D01*
X47368699Y-71840053D01*
X47371936Y-71841518D01*
X47483344Y-71892082D01*
X47730041Y-71723616D01*
X47805719Y-71672259D01*
X47874273Y-71626345D01*
X47931730Y-71588486D01*
X47974118Y-71561293D01*
X47997467Y-71547377D01*
X47999684Y-71546345D01*
X48016652Y-71550940D01*
X48048343Y-71573111D01*
X48095994Y-71613903D01*
X48160840Y-71674361D01*
X48227039Y-71738683D01*
X48290856Y-71802068D01*
X48347971Y-71859907D01*
X48394947Y-71908631D01*
X48428345Y-71944666D01*
X48444727Y-71964440D01*
X48445336Y-71965458D01*
X48447147Y-71979028D01*
X48440325Y-72001189D01*
X48423182Y-72034934D01*
X48394035Y-72083256D01*
X48351197Y-72149148D01*
X48294090Y-72233973D01*
X48243408Y-72308633D01*
X48198103Y-72375596D01*
X48160792Y-72430972D01*
X48134094Y-72470876D01*
X48120627Y-72491418D01*
X48119779Y-72492812D01*
X48121423Y-72512494D01*
X48133887Y-72550749D01*
X48154690Y-72600345D01*
X48162104Y-72616184D01*
X48194456Y-72686746D01*
X48228970Y-72766809D01*
X48257007Y-72836085D01*
X48277210Y-72887501D01*
X48293257Y-72926575D01*
X48302530Y-72946997D01*
X48303683Y-72948570D01*
X48320738Y-72951177D01*
X48360940Y-72958319D01*
X48418944Y-72968979D01*
X48489405Y-72982141D01*
X48566977Y-72996789D01*
X48646314Y-73011905D01*
X48722073Y-73026474D01*
X48788906Y-73039478D01*
X48841470Y-73049901D01*
X48874418Y-73056726D01*
X48882499Y-73058655D01*
X48890847Y-73063418D01*
X48897148Y-73074174D01*
X48901687Y-73094554D01*
X48904746Y-73128190D01*
X48906609Y-73178711D01*
X48907560Y-73249748D01*
X48907882Y-73344932D01*
X48907899Y-73383948D01*
X48907899Y-73701255D01*
X48831699Y-73716295D01*
X48789305Y-73724451D01*
X48726042Y-73736355D01*
X48649604Y-73750572D01*
X48567685Y-73765666D01*
X48545042Y-73769811D01*
X48469448Y-73784509D01*
X48403595Y-73798961D01*
X48353008Y-73811831D01*
X48323216Y-73821778D01*
X48318254Y-73824743D01*
X48306068Y-73845739D01*
X48288595Y-73886423D01*
X48269219Y-73938778D01*
X48265376Y-73950056D01*
X48239981Y-74019979D01*
X48208459Y-74098874D01*
X48177611Y-74169722D01*
X48177459Y-74170051D01*
X48126089Y-74281189D01*
X48295041Y-74529709D01*
X48463994Y-74778228D01*
X48247071Y-74995514D01*
X48181461Y-75060182D01*
X48121621Y-75117189D01*
X48070909Y-75163489D01*
X48032688Y-75196040D01*
X48010317Y-75211799D01*
X48007108Y-75212799D01*
X47988268Y-75204925D01*
X47949822Y-75183034D01*
X47895972Y-75149723D01*
X47830918Y-75107587D01*
X47760582Y-75060399D01*
X47689197Y-75012266D01*
X47625550Y-74970384D01*
X47573683Y-74937327D01*
X47537637Y-74915674D01*
X47521509Y-74907999D01*
X47501831Y-74914493D01*
X47464517Y-74931606D01*
X47417263Y-74955782D01*
X47412254Y-74958469D01*
X47348619Y-74990383D01*
X47304983Y-75006035D01*
X47277844Y-75006201D01*
X47263699Y-74991660D01*
X47263617Y-74991456D01*
X47256547Y-74974235D01*
X47239684Y-74933355D01*
X47214337Y-74871981D01*
X47181813Y-74793275D01*
X47143420Y-74700403D01*
X47100464Y-74596528D01*
X47058864Y-74495958D01*
X47013146Y-74384972D01*
X46971168Y-74282159D01*
X46934190Y-74190671D01*
X46903469Y-74113657D01*
X46880264Y-74054271D01*
X46865832Y-74015665D01*
X46861385Y-74001256D01*
X46872538Y-73984728D01*
X46901711Y-73958386D01*
X46940613Y-73929343D01*
X47051399Y-73837495D01*
X47137993Y-73732215D01*
X47199358Y-73615722D01*
X47234457Y-73490232D01*
X47242250Y-73357963D01*
X47236585Y-73296913D01*
X47205720Y-73170251D01*
X47152562Y-73058397D01*
X47080409Y-72962457D01*
X46992559Y-72883532D01*
X46892307Y-72822726D01*
X46782952Y-72781143D01*
X46667789Y-72759884D01*
X46550117Y-72760055D01*
X46433232Y-72782757D01*
X46320431Y-72829094D01*
X46215011Y-72900169D01*
X46171010Y-72940367D01*
X46086621Y-73043585D01*
X46027864Y-73156381D01*
X45994346Y-73275466D01*
X45985677Y-73397551D01*
X46001465Y-73519349D01*
X46041320Y-73637572D01*
X46104849Y-73748931D01*
X46191663Y-73850140D01*
X46288671Y-73929343D01*
X46329079Y-73959618D01*
X46357624Y-73985675D01*
X46367899Y-74001281D01*
X46362519Y-74018299D01*
X46347217Y-74058956D01*
X46323254Y-74120098D01*
X46291886Y-74198575D01*
X46254374Y-74291236D01*
X46211975Y-74394928D01*
X46170305Y-74495982D01*
X46124332Y-74607063D01*
X46081749Y-74709997D01*
X46043863Y-74801621D01*
X46011982Y-74878772D01*
X45987413Y-74938287D01*
X45971462Y-74977000D01*
X45965552Y-74991456D01*
X45951590Y-75006141D01*
X45924582Y-75006098D01*
X45881055Y-74990555D01*
X45817532Y-74958740D01*
X45817030Y-74958469D01*
X45769202Y-74933779D01*
X45730539Y-74915794D01*
X45708737Y-74908070D01*
X45707775Y-74907999D01*
X45691363Y-74915834D01*
X45655129Y-74937621D01*
X45603116Y-74970784D01*
X45539367Y-75012747D01*
X45468702Y-75060399D01*
X45396758Y-75108647D01*
X45331916Y-75150607D01*
X45278377Y-75183683D01*
X45240339Y-75205277D01*
X45222175Y-75212799D01*
X45205450Y-75202913D01*
X45171822Y-75175282D01*
X45124652Y-75132951D01*
X45067300Y-75078961D01*
X45003126Y-75016355D01*
X44982139Y-74995439D01*
X44765141Y-74778079D01*
X44930310Y-74535676D01*
X44980506Y-74461237D01*
X45024561Y-74394428D01*
X45060004Y-74339121D01*
X45084361Y-74299185D01*
X45095164Y-74278492D01*
X45095480Y-74277019D01*
X45089785Y-74257514D01*
X45074468Y-74218278D01*
X45052179Y-74165886D01*
X45036535Y-74130811D01*
X45007283Y-74063657D01*
X44979736Y-73995814D01*
X44958379Y-73938490D01*
X44952577Y-73921028D01*
X44936094Y-73874394D01*
X44919982Y-73838361D01*
X44911132Y-73824743D01*
X44891602Y-73816408D01*
X44848976Y-73804593D01*
X44788787Y-73790637D01*
X44716564Y-73775878D01*
X44684242Y-73769811D01*
X44602164Y-73754729D01*
X44523437Y-73740125D01*
X44455751Y-73727436D01*
X44406802Y-73718098D01*
X44397585Y-73716295D01*
X44321385Y-73701255D01*
X44321385Y-73383948D01*
X44321556Y-73279610D01*
X44322258Y-73200669D01*
X44323776Y-73143494D01*
X44326391Y-73104455D01*
X44330388Y-73079921D01*
X44336051Y-73066261D01*
X44343662Y-73059845D01*
X44346785Y-73058655D01*
X44365620Y-73054436D01*
X44407230Y-73046018D01*
X44466272Y-73034417D01*
X44537399Y-73020651D01*
X44615267Y-73005736D01*
X44694529Y-72990688D01*
X44769840Y-72976525D01*
X44835855Y-72964262D01*
X44887229Y-72954917D01*
X44918617Y-72949506D01*
X44925601Y-72948570D01*
X44931927Y-72936052D01*
X44945932Y-72902702D01*
X44964997Y-72854833D01*
X44972276Y-72836085D01*
X45001638Y-72763651D01*
X45036213Y-72683626D01*
X45067179Y-72616184D01*
X45089965Y-72564615D01*
X45105124Y-72522241D01*
X45110184Y-72496290D01*
X45109378Y-72492812D01*
X45098683Y-72476392D01*
X45074262Y-72439873D01*
X45038737Y-72387143D01*
X44994729Y-72322091D01*
X44944859Y-72248607D01*
X44934998Y-72234101D01*
X44877134Y-72148160D01*
X44834598Y-72082717D01*
X44805696Y-72034760D01*
X44788732Y-72001276D01*
X44782009Y-71979251D01*
X44783832Y-71965673D01*
X44783878Y-71965587D01*
X44798228Y-71947753D01*
X44829965Y-71913273D01*
X44875652Y-71865724D01*
X44931846Y-71808678D01*
X44995110Y-71745711D01*
X45002244Y-71738683D01*
X45081972Y-71661476D01*
X45143499Y-71604786D01*
X45188063Y-71567566D01*
X45216899Y-71548771D01*
X45229600Y-71546345D01*
X45248136Y-71556927D01*
X45286603Y-71581372D01*
X45341028Y-71617068D01*
X45407440Y-71661403D01*
X45481867Y-71711767D01*
X45499243Y-71723616D01*
X45745939Y-71892082D01*
X45857348Y-71841518D01*
X45925099Y-71812051D01*
X45997825Y-71782415D01*
X46060345Y-71758786D01*
X46063099Y-71757814D01*
X46112002Y-71739913D01*
X46149699Y-71724776D01*
X46168067Y-71715666D01*
X46168098Y-71715640D01*
X46173927Y-71699173D01*
X46183834Y-71658675D01*
X46196837Y-71598698D01*
X46211951Y-71523796D01*
X46228194Y-71438520D01*
X46229523Y-71431331D01*
X46245817Y-71343470D01*
X46260775Y-71263716D01*
X46273433Y-71197137D01*
X46282828Y-71148803D01*
X46287996Y-71123781D01*
X46288086Y-71123399D01*
X46291231Y-71112755D01*
X46297346Y-71104718D01*
X46310095Y-71098923D01*
X46333142Y-71095003D01*
X46370151Y-71092591D01*
X46424786Y-71091321D01*
X46500709Y-71090827D01*
X46601586Y-71090742D01*
X46614642Y-71090742D01*
X46718552Y-71090804D01*
G37*
D14*
%TO.C,R6*%
X58375000Y-72967064D02*
X58375000Y-72512936D01*
X56905000Y-72967064D02*
X56905000Y-72512936D01*
%TO.C,D1*%
X61455000Y-74670000D02*
X64315000Y-74670000D01*
X64315000Y-72750000D02*
X61455000Y-72750000D01*
X64315000Y-74670000D02*
X64315000Y-72750000D01*
D16*
G36*
X62955000Y-73710000D02*
G01*
X61955000Y-74310000D01*
X61955000Y-73060000D01*
X62955000Y-73710000D01*
G37*
D10*
%TO.C,SW1*%
X56800000Y-64450000D02*
X57200000Y-64050000D01*
X57200000Y-64050000D02*
X56800000Y-64450000D01*
X57200000Y-64050000D02*
X57200000Y-67050000D01*
X57200000Y-64050000D02*
X57600000Y-64450000D01*
X57200000Y-67050000D02*
X57200000Y-64050000D01*
X58095000Y-62750000D02*
X63505000Y-62750000D01*
X63505000Y-68150000D01*
X58095000Y-68150000D01*
X58095000Y-62750000D01*
%TD*%
%LPC*%
D17*
%TO.C,U1*%
X56591200Y-62661800D03*
X55591200Y-62661800D03*
X54591200Y-62661800D03*
X53591200Y-62661800D03*
X52591200Y-62661800D03*
X52591200Y-67936800D03*
X53591200Y-67936800D03*
X54591200Y-67936800D03*
X55591200Y-67936800D03*
X56591200Y-67936800D03*
D18*
X54591200Y-65299300D03*
%TD*%
D19*
%TO.C,H4*%
X71000000Y-76490000D03*
D20*
X71050000Y-76490000D03*
%TD*%
D21*
%TO.C,R4*%
X59600000Y-73770000D03*
X59600000Y-71770000D03*
%TD*%
D22*
%TO.C,R2*%
X56350000Y-57920000D03*
X56350000Y-59920000D03*
%TD*%
%TO.C,R3*%
X54410000Y-57940000D03*
X54410000Y-59940000D03*
%TD*%
D23*
%TO.C,J2*%
X69800000Y-68450000D03*
D20*
X69800000Y-63370000D03*
%TD*%
D24*
%TO.C,USB1*%
X46510000Y-62790000D03*
X46510000Y-68570000D03*
D25*
X47955000Y-62430000D03*
X47955000Y-63230000D03*
D26*
X47955000Y-63930000D03*
X47955000Y-64430000D03*
X47955000Y-64930000D03*
X47955000Y-65430000D03*
X47955000Y-65930000D03*
X47955000Y-66430000D03*
X47955000Y-66930000D03*
X47955000Y-67430000D03*
D25*
X47955000Y-68130000D03*
X47955000Y-68930000D03*
D27*
X47040000Y-61360000D03*
D28*
X42860000Y-61360000D03*
D27*
X47040000Y-70000000D03*
D28*
X42860000Y-70000000D03*
%TD*%
D20*
%TO.C,H3*%
X71000000Y-57990000D03*
D19*
X71000000Y-57990000D03*
%TD*%
D20*
%TO.C,H2*%
X43000000Y-76500000D03*
D19*
X43000000Y-76500000D03*
%TD*%
D29*
%TO.C,C1*%
X58070000Y-59585000D03*
X58070000Y-57860000D03*
%TD*%
D21*
%TO.C,R5*%
X53730000Y-73740000D03*
X53730000Y-71740000D03*
%TD*%
%TO.C,R1*%
X55690000Y-73720000D03*
X55690000Y-71720000D03*
%TD*%
%TO.C,R6*%
X57640000Y-73740000D03*
X57640000Y-71740000D03*
%TD*%
D30*
%TO.C,D1*%
X63480000Y-73710000D03*
X61430000Y-73710000D03*
%TD*%
D31*
%TO.C,SW1*%
X59530000Y-69260000D03*
X60800000Y-69260000D03*
X62070000Y-69260000D03*
X62070000Y-61640000D03*
X60800000Y-61640000D03*
X59530000Y-61640000D03*
%TD*%
D20*
%TO.C,H1*%
X43000000Y-58000000D03*
D19*
X43000000Y-58000000D03*
%TD*%
D32*
%TO.C,FB1*%
X42530000Y-71520000D03*
X41060000Y-71520000D03*
%TD*%
%LPD*%
M02*
