M48
; DRILL file {KiCad 8.0.6} date 2024-12-14T19:14:03-0500
; FORMAT={-:-/ absolute / inch / decimal}
; #@! TF.CreationDate,2024-12-14T19:14:03-05:00
; #@! TF.GenerationSoftware,Kicad,Pcbnew,8.0.6
; #@! TF.FileFunction,Plated,1,2,PTH
FMAT,2
INCH
; #@! TA.AperFunction,Plated,PTH,ViaDrill
T1C0.0118
; #@! TA.AperFunction,Plated,PTH,ComponentDrill
T2C0.0236
; #@! TA.AperFunction,Plated,PTH,ComponentDrill
T3C0.0512
; #@! TA.AperFunction,Plated,PTH,ComponentDrill
T4C0.0866
%
G90
G05
T1
X1.9146Y-2.3756
X1.9146Y-2.4051
X1.9157Y-2.3126
X1.9157Y-2.3445
X1.9264Y-2.8276
X1.9264Y-2.8571
X1.9276Y-2.7646
X1.9276Y-2.7965
X2.0Y-2.5283
X2.0925Y-2.7268
X2.1614Y-2.4043
X2.263Y-2.7807
X2.2937Y-2.5496
X2.3146Y-2.3902
X2.3309Y-2.5124
X2.3445Y-2.6614
X2.3961Y-2.6614
X2.4469Y-2.663
X2.5488Y-2.8717
T3
X2.748Y-2.4949
X2.748Y-2.6949
T4
X1.6929Y-2.2835
X1.6929Y-3.0118
X2.7953Y-2.2831
X2.7972Y-3.0114
T2
G00X1.6992Y-2.4157
M15
G01X1.6756Y-2.4157
M16
G05
G00X1.6992Y-2.7559
M15
G01X1.6756Y-2.7559
M16
G05
G00X1.8736Y-2.4157
M15
G01X1.8303Y-2.4157
M16
G05
G00X1.8736Y-2.7559
M15
G01X1.8303Y-2.7559
M16
G05
M30
