%TF.GenerationSoftware,KiCad,Pcbnew,8.0.6*%
%TF.CreationDate,2024-12-14T19:22:35-05:00*%
%TF.ProjectId,dpx_pd_pooper,6470785f-7064-45f7-906f-6f7065722e6b,rev?*%
%TF.SameCoordinates,Original*%
%TF.FileFunction,Copper,L1,Top*%
%TF.FilePolarity,Positive*%
%FSLAX46Y46*%
G04 Gerber Fmt 4.6, Leading zero omitted, Abs format (unit mm)*
G04 Created by KiCad (PCBNEW 8.0.6) date 2024-12-14 19:22:35*
%MOMM*%
%LPD*%
G01*
G04 APERTURE LIST*
G04 Aperture macros list*
%AMRoundRect*
0 Rectangle with rounded corners*
0 $1 Rounding radius*
0 $2 $3 $4 $5 $6 $7 $8 $9 X,Y pos of 4 corners*
0 Add a 4 corners polygon primitive as box body*
4,1,4,$2,$3,$4,$5,$6,$7,$8,$9,$2,$3,0*
0 Add four circle primitives for the rounded corners*
1,1,$1+$1,$2,$3*
1,1,$1+$1,$4,$5*
1,1,$1+$1,$6,$7*
1,1,$1+$1,$8,$9*
0 Add four rect primitives between the rounded corners*
20,1,$1+$1,$2,$3,$4,$5,0*
20,1,$1+$1,$4,$5,$6,$7,0*
20,1,$1+$1,$6,$7,$8,$9,0*
20,1,$1+$1,$8,$9,$2,$3,0*%
G04 Aperture macros list end*
%TA.AperFunction,SMDPad,CuDef*%
%ADD10RoundRect,0.150000X-0.150000X0.687500X-0.150000X-0.687500X0.150000X-0.687500X0.150000X0.687500X0*%
%TD*%
%TA.AperFunction,HeatsinkPad*%
%ADD11C,0.810000*%
%TD*%
%TA.AperFunction,HeatsinkPad*%
%ADD12R,3.300000X2.100000*%
%TD*%
%TA.AperFunction,ConnectorPad*%
%ADD13C,3.500000*%
%TD*%
%TA.AperFunction,ComponentPad*%
%ADD14C,2.600000*%
%TD*%
%TA.AperFunction,SMDPad,CuDef*%
%ADD15RoundRect,0.250000X0.450000X-0.350000X0.450000X0.350000X-0.450000X0.350000X-0.450000X-0.350000X0*%
%TD*%
%TA.AperFunction,SMDPad,CuDef*%
%ADD16RoundRect,0.250000X-0.450000X0.350000X-0.450000X-0.350000X0.450000X-0.350000X0.450000X0.350000X0*%
%TD*%
%TA.AperFunction,ComponentPad*%
%ADD17R,2.600000X2.600000*%
%TD*%
%TA.AperFunction,SMDPad,CuDef*%
%ADD18R,1.450000X0.600000*%
%TD*%
%TA.AperFunction,SMDPad,CuDef*%
%ADD19R,1.450000X0.300000*%
%TD*%
%TA.AperFunction,ComponentPad*%
%ADD20O,2.100000X1.000000*%
%TD*%
%TA.AperFunction,ComponentPad*%
%ADD21O,1.600000X1.000000*%
%TD*%
%TA.AperFunction,SMDPad,CuDef*%
%ADD22RoundRect,0.237500X0.237500X-0.300000X0.237500X0.300000X-0.237500X0.300000X-0.237500X-0.300000X0*%
%TD*%
%TA.AperFunction,SMDPad,CuDef*%
%ADD23RoundRect,0.250000X0.325000X0.450000X-0.325000X0.450000X-0.325000X-0.450000X0.325000X-0.450000X0*%
%TD*%
%TA.AperFunction,SMDPad,CuDef*%
%ADD24RoundRect,0.190000X0.190000X-0.445000X0.190000X0.445000X-0.190000X0.445000X-0.190000X-0.445000X0*%
%TD*%
%TA.AperFunction,SMDPad,CuDef*%
%ADD25R,1.000000X0.970000*%
%TD*%
%TA.AperFunction,ViaPad*%
%ADD26C,0.600000*%
%TD*%
%TA.AperFunction,Conductor*%
%ADD27C,0.550000*%
%TD*%
%TA.AperFunction,Conductor*%
%ADD28C,2.300000*%
%TD*%
%TA.AperFunction,Conductor*%
%ADD29C,0.400000*%
%TD*%
%TA.AperFunction,Conductor*%
%ADD30C,0.500000*%
%TD*%
%TA.AperFunction,Conductor*%
%ADD31C,0.650000*%
%TD*%
%TA.AperFunction,Conductor*%
%ADD32C,0.200000*%
%TD*%
%TA.AperFunction,Conductor*%
%ADD33C,0.250000*%
%TD*%
G04 APERTURE END LIST*
D10*
%TO.P,U1,1,VDD*%
%TO.N,VDD*%
X56591200Y-62661800D03*
%TO.P,U1,2,CFG2*%
%TO.N,CFG2*%
X55591200Y-62661800D03*
%TO.P,U1,3,CFG3*%
%TO.N,CFG3*%
X54591200Y-62661800D03*
%TO.P,U1,4,D+*%
%TO.N,D+*%
X53591200Y-62661800D03*
%TO.P,U1,5,D-*%
%TO.N,D-*%
X52591200Y-62661800D03*
%TO.P,U1,6,CC2*%
%TO.N,CC2*%
X52591200Y-67936800D03*
%TO.P,U1,7,CC1*%
%TO.N,CC1*%
X53591200Y-67936800D03*
%TO.P,U1,8,VBUS*%
%TO.N,Net-(U1-VBUS)*%
X54591200Y-67936800D03*
%TO.P,U1,9,CFG1*%
%TO.N,CFG1*%
X55591200Y-67936800D03*
%TO.P,U1,10,PG*%
%TO.N,PG*%
X56591200Y-67936800D03*
D11*
%TO.P,U1,11,GND*%
%TO.N,GND*%
X55226200Y-65299300D03*
D12*
X54591200Y-65299300D03*
D11*
X53956200Y-65299300D03*
%TD*%
D13*
%TO.P,H4,1*%
%TO.N,N/C*%
X71000000Y-76490000D03*
D14*
X71050000Y-76490000D03*
%TD*%
D15*
%TO.P,R4,1*%
%TO.N,Net-(D1-A)*%
X59600000Y-73770000D03*
%TO.P,R4,2*%
%TO.N,VDD*%
X59600000Y-71770000D03*
%TD*%
D16*
%TO.P,R2,1*%
%TO.N,VDD*%
X56350000Y-57920000D03*
%TO.P,R2,2*%
%TO.N,CFG2*%
X56350000Y-59920000D03*
%TD*%
%TO.P,R3,1*%
%TO.N,VDD*%
X54410000Y-57940000D03*
%TO.P,R3,2*%
%TO.N,CFG3*%
X54410000Y-59940000D03*
%TD*%
D17*
%TO.P,J2,1,Pin_1*%
%TO.N,VBUS*%
X69800000Y-68450000D03*
D14*
%TO.P,J2,2,Pin_2*%
%TO.N,GND*%
X69800000Y-63370000D03*
%TD*%
D18*
%TO.P,USB1,1,GND*%
%TO.N,GND*%
X47955000Y-62430000D03*
%TO.P,USB1,2,VBUS*%
%TO.N,VBUS*%
X47955000Y-63230000D03*
D19*
%TO.P,USB1,3,SBU2*%
%TO.N,unconnected-(USB1-SBU2-Pad3)*%
X47955000Y-63930000D03*
%TO.P,USB1,4,CC1*%
%TO.N,CC1*%
X47955000Y-64430000D03*
%TO.P,USB1,5,DN2*%
%TO.N,D-*%
X47955000Y-64930000D03*
%TO.P,USB1,6,DP1*%
%TO.N,D+*%
X47955000Y-65430000D03*
%TO.P,USB1,7,DN1*%
%TO.N,D-*%
X47955000Y-65930000D03*
%TO.P,USB1,8,DP2*%
%TO.N,D+*%
X47955000Y-66430000D03*
%TO.P,USB1,9,SBU1*%
%TO.N,unconnected-(USB1-SBU1-Pad9)*%
X47955000Y-66930000D03*
%TO.P,USB1,10,CC2*%
%TO.N,CC2*%
X47955000Y-67430000D03*
D18*
%TO.P,USB1,11,VBUS*%
%TO.N,VBUS*%
X47955000Y-68130000D03*
%TO.P,USB1,12,GND*%
%TO.N,GND*%
X47955000Y-68930000D03*
D20*
%TO.P,USB1,13,SHIELD*%
%TO.N,Net-(USB1-SHIELD)*%
X47040000Y-61360000D03*
D21*
X42860000Y-61360000D03*
D20*
X47040000Y-70000000D03*
D21*
X42860000Y-70000000D03*
%TD*%
D14*
%TO.P,H3,1*%
%TO.N,N/C*%
X71000000Y-57990000D03*
D13*
X71000000Y-57990000D03*
%TD*%
D14*
%TO.P,H2,1*%
%TO.N,N/C*%
X43000000Y-76500000D03*
D13*
X43000000Y-76500000D03*
%TD*%
D22*
%TO.P,C1,1*%
%TO.N,VDD*%
X58070000Y-59585000D03*
%TO.P,C1,2*%
%TO.N,GND*%
X58070000Y-57860000D03*
%TD*%
D15*
%TO.P,R5,1*%
%TO.N,VBUS*%
X53730000Y-73740000D03*
%TO.P,R5,2*%
%TO.N,Net-(U1-VBUS)*%
X53730000Y-71740000D03*
%TD*%
%TO.P,R1,1*%
%TO.N,VDD*%
X55690000Y-73720000D03*
%TO.P,R1,2*%
%TO.N,CFG1*%
X55690000Y-71720000D03*
%TD*%
%TO.P,R6,1*%
%TO.N,VBUS*%
X57640000Y-73740000D03*
%TO.P,R6,2*%
%TO.N,VDD*%
X57640000Y-71740000D03*
%TD*%
D23*
%TO.P,D1,1,K*%
%TO.N,PG*%
X63480000Y-73710000D03*
%TO.P,D1,2,A*%
%TO.N,Net-(D1-A)*%
X61430000Y-73710000D03*
%TD*%
D24*
%TO.P,SW1,1*%
%TO.N,GND*%
X59530000Y-69260000D03*
%TO.P,SW1,2*%
X60800000Y-69260000D03*
%TO.P,SW1,3*%
X62070000Y-69260000D03*
%TO.P,SW1,4*%
%TO.N,CFG3*%
X62070000Y-61640000D03*
%TO.P,SW1,5*%
%TO.N,CFG2*%
X60800000Y-61640000D03*
%TO.P,SW1,6*%
%TO.N,CFG1*%
X59530000Y-61640000D03*
%TD*%
D14*
%TO.P,H1,1*%
%TO.N,N/C*%
X43000000Y-58000000D03*
D13*
X43000000Y-58000000D03*
%TD*%
D25*
%TO.P,FB1,1*%
%TO.N,Net-(USB1-SHIELD)*%
X42530000Y-71520000D03*
%TO.P,FB1,2*%
%TO.N,GND*%
X41060000Y-71520000D03*
%TD*%
D26*
%TO.N,GND*%
X48660000Y-58740000D03*
X48960000Y-71030000D03*
X48930000Y-72570000D03*
X60860000Y-67600000D03*
X48630000Y-61090000D03*
X48660000Y-59550000D03*
X62150000Y-67640000D03*
X48960000Y-70220000D03*
X48630000Y-60340000D03*
X48930000Y-71820000D03*
X59550000Y-67600000D03*
%TO.N,PG*%
X64740000Y-72940000D03*
X57480000Y-70630000D03*
%TO.N,CFG1*%
X58260000Y-64760000D03*
X59205000Y-63815000D03*
%TO.N,CFG3*%
X58790000Y-60710000D03*
X54900000Y-61070000D03*
%TO.N,CC1*%
X53150000Y-69260000D03*
X50800000Y-64220000D03*
%TD*%
D27*
%TO.N,VBUS*%
X51140000Y-70231000D02*
X51140000Y-69148600D01*
X51140000Y-69148600D02*
X50121400Y-68130000D01*
X50121400Y-68130000D02*
X47955000Y-68130000D01*
D28*
X51140000Y-70231000D02*
X51140000Y-76290000D01*
X51140000Y-76290000D02*
X51180000Y-76250000D01*
X51180000Y-76250000D02*
X56120000Y-76250000D01*
D29*
%TO.N,VDD*%
X57640000Y-71740000D02*
X57640000Y-71770000D01*
X57640000Y-71770000D02*
X55690000Y-73720000D01*
X59600000Y-71770000D02*
X57670000Y-71770000D01*
X57670000Y-71770000D02*
X57640000Y-71740000D01*
D30*
%TO.N,GND*%
X49250000Y-62290000D02*
X49250000Y-61200000D01*
X49180000Y-68920000D02*
X49180000Y-69590000D01*
X49180000Y-69590000D02*
X49210000Y-69620000D01*
X49250000Y-61200000D02*
X49280000Y-61170000D01*
X47955000Y-62430000D02*
X49110000Y-62430000D01*
X60800000Y-69260000D02*
X62070000Y-69260000D01*
X49110000Y-62430000D02*
X49250000Y-62290000D01*
X49170000Y-68930000D02*
X49180000Y-68920000D01*
X47955000Y-68930000D02*
X49170000Y-68930000D01*
D31*
%TO.N,VDD*%
X57375000Y-62605000D02*
X57900000Y-62080000D01*
X58980000Y-71670000D02*
X58970000Y-71680000D01*
X64370000Y-71320000D02*
X60050000Y-71320000D01*
X57900000Y-62080000D02*
X57900000Y-59755000D01*
X64085000Y-59585000D02*
X64370000Y-59870000D01*
X64370000Y-59870000D02*
X64370000Y-71320000D01*
X58970000Y-71690000D02*
X58970000Y-71680000D01*
X56630000Y-62605000D02*
X57375000Y-62605000D01*
D29*
X59480000Y-71650000D02*
X59600000Y-71770000D01*
D32*
X56330000Y-57940000D02*
X56350000Y-57920000D01*
D31*
X58070000Y-59585000D02*
X64085000Y-59585000D01*
X56350000Y-57920000D02*
X58015000Y-59585000D01*
X58015000Y-59585000D02*
X58070000Y-59585000D01*
X60050000Y-71320000D02*
X59600000Y-71770000D01*
X57900000Y-59755000D02*
X58070000Y-59585000D01*
D32*
X54410000Y-57940000D02*
X56330000Y-57940000D01*
%TO.N,PG*%
X63950000Y-73710000D02*
X64720000Y-72940000D01*
X56850000Y-70000000D02*
X57480000Y-70630000D01*
X56850000Y-69980000D02*
X56850000Y-70000000D01*
X57480000Y-70630000D02*
X57480000Y-70610000D01*
X57480000Y-70610000D02*
X56850000Y-69980000D01*
X64740000Y-72920000D02*
X64700000Y-72960000D01*
X56630000Y-69760000D02*
X56850000Y-69980000D01*
X63480000Y-73710000D02*
X63950000Y-73710000D01*
X56630000Y-67880000D02*
X56630000Y-69760000D01*
X64740000Y-72940000D02*
X64740000Y-72920000D01*
X64720000Y-72940000D02*
X64740000Y-72940000D01*
D29*
%TO.N,Net-(D1-A)*%
X61370000Y-73770000D02*
X61430000Y-73710000D01*
X59600000Y-73770000D02*
X61370000Y-73770000D01*
%TO.N,Net-(USB1-SHIELD)*%
X42860000Y-70000000D02*
X42860000Y-61360000D01*
X42860000Y-61360000D02*
X47040000Y-61360000D01*
X47040000Y-70000000D02*
X42860000Y-70000000D01*
X42860000Y-70000000D02*
X42860000Y-71190000D01*
X42860000Y-71190000D02*
X42530000Y-71520000D01*
X47040000Y-70000000D02*
X47040000Y-70145000D01*
D32*
%TO.N,CFG1*%
X56710000Y-66280000D02*
X56710000Y-66680000D01*
X58260000Y-64760000D02*
X56810000Y-66180000D01*
X58260000Y-64760000D02*
X56780000Y-66210000D01*
X55630000Y-66760000D02*
X55630000Y-67880000D01*
D33*
X55440000Y-68027500D02*
X55440000Y-71250000D01*
D32*
X56710000Y-66680000D02*
X56700000Y-66690000D01*
D33*
X55440000Y-71250000D02*
X55060000Y-71630000D01*
D32*
X56700000Y-66690000D02*
X55700000Y-66690000D01*
X56780000Y-66210000D02*
X56710000Y-66280000D01*
X59520000Y-63060000D02*
X59530000Y-61640000D01*
X55700000Y-66690000D02*
X55630000Y-66760000D01*
X56810000Y-66180000D02*
X56830000Y-66160000D01*
X59205000Y-63815000D02*
X59520000Y-63060000D01*
%TO.N,CFG2*%
X55630000Y-62605000D02*
X55630000Y-60640000D01*
X55630000Y-63480000D02*
X55920000Y-63770000D01*
X60850000Y-64050000D02*
X60850000Y-61690000D01*
X58140000Y-63770000D02*
X58950000Y-64580000D01*
X55630000Y-60640000D02*
X56350000Y-59920000D01*
X60850000Y-61690000D02*
X60800000Y-61640000D01*
X55920000Y-63770000D02*
X58140000Y-63770000D01*
X55630000Y-62605000D02*
X55630000Y-63480000D01*
X58950000Y-64580000D02*
X60320000Y-64580000D01*
X60320000Y-64580000D02*
X60850000Y-64050000D01*
%TO.N,CFG3*%
X54410000Y-59940000D02*
X54410000Y-61110000D01*
X54900000Y-61080000D02*
X54900000Y-61070000D01*
X54900000Y-61070000D02*
X54910000Y-61070000D01*
X62090000Y-61620000D02*
X62070000Y-61640000D01*
X54410000Y-61110000D02*
X54410000Y-62385000D01*
X54910000Y-61070000D02*
X54890000Y-61090000D01*
X54410000Y-61110000D02*
X54870000Y-61110000D01*
X54870000Y-61110000D02*
X54900000Y-61080000D01*
X58790000Y-60710000D02*
X62090000Y-60670000D01*
X62090000Y-60670000D02*
X62090000Y-61620000D01*
X54410000Y-62385000D02*
X54630000Y-62605000D01*
D29*
%TO.N,VBUS*%
X47955000Y-68130000D02*
X47200000Y-68130000D01*
D28*
X68210000Y-68560000D02*
X67690000Y-68040000D01*
D29*
X57640000Y-73740000D02*
X57640000Y-75950000D01*
X45990000Y-66920000D02*
X45990000Y-63790000D01*
X53730000Y-73740000D02*
X53730000Y-76120000D01*
X47190000Y-63230000D02*
X47955000Y-63230000D01*
X56600000Y-75770000D02*
X56120000Y-76250000D01*
D28*
X66780000Y-75070000D02*
X66780000Y-69990000D01*
X66780000Y-69990000D02*
X68210000Y-68560000D01*
D29*
X50960000Y-76520000D02*
X50970000Y-76530000D01*
D28*
X65600000Y-76250000D02*
X66780000Y-75070000D01*
X56120000Y-76250000D02*
X65600000Y-76250000D01*
D29*
X45990000Y-63790000D02*
X46630000Y-63790000D01*
D28*
X67690000Y-68040000D02*
X67445000Y-68040000D01*
D29*
X46630000Y-63790000D02*
X47190000Y-63230000D01*
X47200000Y-68130000D02*
X45990000Y-66920000D01*
%TO.N,Net-(U1-VBUS)*%
X54630000Y-67880000D02*
X54630000Y-70840000D01*
D33*
X53100000Y-71650000D02*
X53250000Y-71500000D01*
D29*
X54630000Y-70840000D02*
X53730000Y-71740000D01*
D33*
X54430000Y-67817500D02*
X54400000Y-67847500D01*
D32*
%TO.N,D-*%
X47925000Y-64900000D02*
X47955000Y-64930000D01*
X46770000Y-65900000D02*
X46770000Y-64900000D01*
X52670000Y-62565000D02*
X52630000Y-62605000D01*
X51170000Y-64930000D02*
X51660000Y-64440000D01*
X46800000Y-65930000D02*
X46770000Y-65900000D01*
X51660000Y-62060000D02*
X52140000Y-61580000D01*
X47955000Y-65930000D02*
X46800000Y-65930000D01*
X52670000Y-62110000D02*
X52670000Y-62565000D01*
X52140000Y-61580000D02*
X52670000Y-62110000D01*
X47955000Y-64930000D02*
X51170000Y-64930000D01*
X46770000Y-64900000D02*
X47925000Y-64900000D01*
X51660000Y-64440000D02*
X51660000Y-62060000D01*
%TO.N,D+*%
X49140000Y-65430000D02*
X49260000Y-65550000D01*
X49260000Y-66340000D02*
X49170000Y-66430000D01*
X49260000Y-65550000D02*
X49260000Y-66340000D01*
X52170000Y-63890000D02*
X52170000Y-66340000D01*
X52170000Y-66340000D02*
X49260000Y-66340000D01*
X49170000Y-66430000D02*
X47955000Y-66430000D01*
X53630000Y-63732500D02*
X53470000Y-63892500D01*
X52172500Y-63892500D02*
X52170000Y-63890000D01*
X47955000Y-65430000D02*
X49140000Y-65430000D01*
X53470000Y-63892500D02*
X52172500Y-63892500D01*
X53630000Y-62605000D02*
X53630000Y-63732500D01*
%TO.N,CC1*%
X53150000Y-69260000D02*
X53630000Y-68550000D01*
D33*
X50590000Y-64430000D02*
X47955000Y-64430000D01*
X50800000Y-64220000D02*
X50590000Y-64430000D01*
D32*
X53630000Y-68550000D02*
X53630000Y-67880000D01*
%TO.N,CC2*%
X51042500Y-67430000D02*
X52180000Y-67430000D01*
X47955000Y-67430000D02*
X51042500Y-67430000D01*
X52180000Y-67430000D02*
X52630000Y-67880000D01*
%TD*%
%TA.AperFunction,Conductor*%
%TO.N,GND*%
G36*
X70851993Y-55520185D02*
G01*
X70897748Y-55572989D01*
X70907692Y-55642147D01*
X70878667Y-55705703D01*
X70819889Y-55743477D01*
X70793064Y-55748234D01*
X70705636Y-55753964D01*
X70705624Y-55753965D01*
X70705620Y-55753966D01*
X70705612Y-55753967D01*
X70705609Y-55753968D01*
X70416283Y-55811518D01*
X70416269Y-55811521D01*
X70136919Y-55906349D01*
X69872334Y-56036828D01*
X69627041Y-56200728D01*
X69405241Y-56395241D01*
X69210728Y-56617041D01*
X69046828Y-56862334D01*
X68916349Y-57126919D01*
X68821521Y-57406269D01*
X68821518Y-57406283D01*
X68763968Y-57695609D01*
X68763964Y-57695636D01*
X68744671Y-57989992D01*
X68744671Y-57990007D01*
X68763964Y-58284363D01*
X68763965Y-58284373D01*
X68763966Y-58284380D01*
X68763968Y-58284390D01*
X68821518Y-58573716D01*
X68821521Y-58573730D01*
X68916349Y-58853080D01*
X69046825Y-59117660D01*
X69046829Y-59117667D01*
X69210725Y-59362955D01*
X69405241Y-59584758D01*
X69627044Y-59779274D01*
X69872332Y-59943170D01*
X69872335Y-59943172D01*
X70136923Y-60073652D01*
X70416278Y-60168481D01*
X70705620Y-60226034D01*
X70733888Y-60227886D01*
X70999993Y-60245329D01*
X71000000Y-60245329D01*
X71000007Y-60245329D01*
X71235675Y-60229881D01*
X71294380Y-60226034D01*
X71583722Y-60168481D01*
X71863077Y-60073652D01*
X72127665Y-59943172D01*
X72372957Y-59779273D01*
X72594758Y-59584758D01*
X72789273Y-59362957D01*
X72953172Y-59117665D01*
X73083652Y-58853077D01*
X73178481Y-58573722D01*
X73236034Y-58284380D01*
X73252215Y-58037511D01*
X73255329Y-57990007D01*
X73255329Y-57989992D01*
X73236035Y-57695636D01*
X73236034Y-57695620D01*
X73178481Y-57406278D01*
X73083652Y-57126923D01*
X72953172Y-56862336D01*
X72944929Y-56850000D01*
X72898042Y-56779829D01*
X72789273Y-56617043D01*
X72746655Y-56568447D01*
X72594758Y-56395241D01*
X72372955Y-56200725D01*
X72127667Y-56036829D01*
X72127660Y-56036825D01*
X71863080Y-55906349D01*
X71583730Y-55811521D01*
X71583724Y-55811519D01*
X71583722Y-55811519D01*
X71294380Y-55753966D01*
X71294373Y-55753965D01*
X71294363Y-55753964D01*
X71206936Y-55748234D01*
X71141327Y-55724207D01*
X71099124Y-55668524D01*
X71093725Y-55598863D01*
X71126845Y-55537342D01*
X71187968Y-55503493D01*
X71215046Y-55500500D01*
X71964108Y-55500500D01*
X72026249Y-55500500D01*
X72033736Y-55500726D01*
X72323796Y-55518271D01*
X72338657Y-55520075D01*
X72432876Y-55537342D01*
X72620798Y-55571780D01*
X72635335Y-55575363D01*
X72909172Y-55660695D01*
X72923163Y-55666000D01*
X73184743Y-55783727D01*
X73197989Y-55790680D01*
X73443465Y-55939075D01*
X73455776Y-55947573D01*
X73681573Y-56124473D01*
X73692781Y-56134403D01*
X73895596Y-56337218D01*
X73905526Y-56348426D01*
X74025481Y-56501538D01*
X74082422Y-56574217D01*
X74090928Y-56586540D01*
X74239316Y-56832004D01*
X74246275Y-56845263D01*
X74363997Y-57106831D01*
X74369306Y-57120832D01*
X74454635Y-57394663D01*
X74458219Y-57409201D01*
X74509923Y-57691340D01*
X74511728Y-57706205D01*
X74529274Y-57996263D01*
X74529500Y-58003750D01*
X74529500Y-76996249D01*
X74529274Y-77003736D01*
X74511728Y-77293794D01*
X74509923Y-77308659D01*
X74458219Y-77590798D01*
X74454635Y-77605336D01*
X74369306Y-77879167D01*
X74363997Y-77893168D01*
X74246275Y-78154736D01*
X74239316Y-78167995D01*
X74090928Y-78413459D01*
X74082422Y-78425782D01*
X73905526Y-78651573D01*
X73895596Y-78662781D01*
X73692781Y-78865596D01*
X73681573Y-78875526D01*
X73455782Y-79052422D01*
X73443459Y-79060928D01*
X73197995Y-79209316D01*
X73184736Y-79216275D01*
X72923168Y-79333997D01*
X72909167Y-79339306D01*
X72635336Y-79424635D01*
X72620798Y-79428219D01*
X72338659Y-79479923D01*
X72323794Y-79481728D01*
X72033736Y-79499274D01*
X72026249Y-79499500D01*
X43003751Y-79499500D01*
X42996264Y-79499274D01*
X42706205Y-79481728D01*
X42691340Y-79479923D01*
X42409201Y-79428219D01*
X42394663Y-79424635D01*
X42120832Y-79339306D01*
X42106831Y-79333997D01*
X41845263Y-79216275D01*
X41832004Y-79209316D01*
X41586540Y-79060928D01*
X41574217Y-79052422D01*
X41348426Y-78875526D01*
X41337218Y-78865596D01*
X41134403Y-78662781D01*
X41124473Y-78651573D01*
X41063424Y-78573650D01*
X40947573Y-78425776D01*
X40939075Y-78413465D01*
X40790680Y-78167989D01*
X40783727Y-78154743D01*
X40666000Y-77893163D01*
X40660693Y-77879167D01*
X40658757Y-77872955D01*
X40575363Y-77605335D01*
X40571780Y-77590798D01*
X40530049Y-77363080D01*
X40520075Y-77308657D01*
X40518271Y-77293794D01*
X40500726Y-77003736D01*
X40500500Y-76996249D01*
X40500500Y-76562477D01*
X40518104Y-76502524D01*
X40727399Y-76502524D01*
X40743477Y-76527542D01*
X40748234Y-76554367D01*
X40763964Y-76794363D01*
X40763965Y-76794373D01*
X40763966Y-76794380D01*
X40819531Y-77073730D01*
X40821518Y-77083716D01*
X40821521Y-77083730D01*
X40916349Y-77363080D01*
X41046825Y-77627660D01*
X41046829Y-77627667D01*
X41210725Y-77872955D01*
X41405241Y-78094758D01*
X41488752Y-78167995D01*
X41627043Y-78289273D01*
X41872335Y-78453172D01*
X42136923Y-78583652D01*
X42416278Y-78678481D01*
X42705620Y-78736034D01*
X42733888Y-78737886D01*
X42999993Y-78755329D01*
X43000000Y-78755329D01*
X43000007Y-78755329D01*
X43235675Y-78739881D01*
X43294380Y-78736034D01*
X43583722Y-78678481D01*
X43863077Y-78583652D01*
X44127665Y-78453172D01*
X44372957Y-78289273D01*
X44594758Y-78094758D01*
X44789273Y-77872957D01*
X44953172Y-77627665D01*
X45083652Y-77363077D01*
X45178481Y-77083722D01*
X45236034Y-76794380D01*
X45255329Y-76500000D01*
X45255329Y-76499992D01*
X45236035Y-76205636D01*
X45236034Y-76205620D01*
X45178481Y-75916278D01*
X45083652Y-75636923D01*
X44953172Y-75372336D01*
X44946490Y-75362336D01*
X44898042Y-75289829D01*
X44789273Y-75127043D01*
X44746655Y-75078447D01*
X44594758Y-74905241D01*
X44372955Y-74710725D01*
X44127667Y-74546829D01*
X44127660Y-74546825D01*
X43863080Y-74416349D01*
X43583730Y-74321521D01*
X43583724Y-74321519D01*
X43583722Y-74321519D01*
X43294380Y-74263966D01*
X43294373Y-74263965D01*
X43294363Y-74263964D01*
X43000007Y-74244671D01*
X42999993Y-74244671D01*
X42705636Y-74263964D01*
X42705624Y-74263965D01*
X42705620Y-74263966D01*
X42705612Y-74263967D01*
X42705609Y-74263968D01*
X42416283Y-74321518D01*
X42416269Y-74321521D01*
X42136919Y-74416349D01*
X41872334Y-74546828D01*
X41627041Y-74710728D01*
X41405241Y-74905241D01*
X41210728Y-75127041D01*
X41046828Y-75372334D01*
X40916349Y-75636919D01*
X40821521Y-75916269D01*
X40821518Y-75916283D01*
X40763968Y-76205609D01*
X40763964Y-76205636D01*
X40748234Y-76445632D01*
X40727399Y-76502524D01*
X40518104Y-76502524D01*
X40520185Y-76495438D01*
X40520445Y-76495212D01*
X40503493Y-76464600D01*
X40500500Y-76437522D01*
X40500500Y-72629000D01*
X40520185Y-72561961D01*
X40572989Y-72516206D01*
X40624500Y-72505000D01*
X40810000Y-72505000D01*
X40810000Y-70535000D01*
X40624500Y-70535000D01*
X40557461Y-70515315D01*
X40511706Y-70462511D01*
X40500500Y-70411000D01*
X40500500Y-58062477D01*
X40520185Y-57995438D01*
X40572989Y-57949683D01*
X40642147Y-57939739D01*
X40705703Y-57968764D01*
X40743477Y-58027542D01*
X40748234Y-58054367D01*
X40763964Y-58294363D01*
X40763965Y-58294373D01*
X40763966Y-58294380D01*
X40819531Y-58573730D01*
X40821518Y-58583716D01*
X40821521Y-58583730D01*
X40916349Y-58863080D01*
X41046825Y-59127660D01*
X41046829Y-59127667D01*
X41210725Y-59372955D01*
X41405241Y-59594758D01*
X41615640Y-59779273D01*
X41627043Y-59789273D01*
X41872335Y-59953172D01*
X42136923Y-60083652D01*
X42330995Y-60149531D01*
X42388149Y-60189720D01*
X42414502Y-60254429D01*
X42401688Y-60323114D01*
X42353774Y-60373967D01*
X42315328Y-60388567D01*
X42268170Y-60397947D01*
X42268160Y-60397950D01*
X42086092Y-60473364D01*
X42086079Y-60473371D01*
X41922218Y-60582860D01*
X41922214Y-60582863D01*
X41782863Y-60722214D01*
X41782860Y-60722218D01*
X41673371Y-60886079D01*
X41673364Y-60886092D01*
X41597950Y-61068160D01*
X41597947Y-61068170D01*
X41559500Y-61261456D01*
X41559500Y-61261459D01*
X41559500Y-61458541D01*
X41559500Y-61458543D01*
X41559499Y-61458543D01*
X41597947Y-61651829D01*
X41597950Y-61651839D01*
X41673364Y-61833907D01*
X41673371Y-61833920D01*
X41782860Y-61997781D01*
X41782863Y-61997785D01*
X41922217Y-62137139D01*
X42017637Y-62200896D01*
X42086086Y-62246632D01*
X42086092Y-62246634D01*
X42091457Y-62249502D01*
X42090453Y-62251378D01*
X42137355Y-62289173D01*
X42159421Y-62355467D01*
X42159500Y-62359895D01*
X42159500Y-69000104D01*
X42139815Y-69067143D01*
X42090925Y-69109505D01*
X42091456Y-69110498D01*
X42087083Y-69112834D01*
X42087011Y-69112898D01*
X42086766Y-69113004D01*
X42086079Y-69113371D01*
X41922218Y-69222860D01*
X41922214Y-69222863D01*
X41782863Y-69362214D01*
X41782860Y-69362218D01*
X41673371Y-69526079D01*
X41673364Y-69526092D01*
X41597950Y-69708160D01*
X41597947Y-69708170D01*
X41559500Y-69901456D01*
X41559500Y-69901457D01*
X41559500Y-69901459D01*
X41559500Y-70098541D01*
X41559500Y-70098543D01*
X41559499Y-70098543D01*
X41597947Y-70291829D01*
X41597950Y-70291839D01*
X41627653Y-70363548D01*
X41635122Y-70433017D01*
X41603847Y-70495496D01*
X41543758Y-70531148D01*
X41513092Y-70535000D01*
X41310000Y-70535000D01*
X41310000Y-72505000D01*
X41607828Y-72505000D01*
X41607844Y-72504999D01*
X41667374Y-72498598D01*
X41667377Y-72498597D01*
X41750950Y-72467426D01*
X41820641Y-72462441D01*
X41837608Y-72467422D01*
X41922517Y-72499091D01*
X41982127Y-72505500D01*
X43077872Y-72505499D01*
X43137483Y-72499091D01*
X43272331Y-72448796D01*
X43387546Y-72362546D01*
X43473796Y-72247331D01*
X43524091Y-72112483D01*
X43530500Y-72052873D01*
X43530499Y-71422031D01*
X43532882Y-71397841D01*
X43548366Y-71319995D01*
X43548366Y-71319992D01*
X43560500Y-71258993D01*
X43560500Y-70999895D01*
X43580185Y-70932856D01*
X43629073Y-70890494D01*
X43628543Y-70889502D01*
X43632914Y-70887165D01*
X43632989Y-70887101D01*
X43633238Y-70886992D01*
X43633902Y-70886636D01*
X43633914Y-70886632D01*
X43797782Y-70777139D01*
X43838101Y-70736820D01*
X43899424Y-70703334D01*
X43925783Y-70700500D01*
X45724217Y-70700500D01*
X45791256Y-70720185D01*
X45811899Y-70736820D01*
X45852214Y-70777136D01*
X45852218Y-70777139D01*
X46016079Y-70886628D01*
X46016092Y-70886635D01*
X46127681Y-70932856D01*
X46198165Y-70962051D01*
X46198169Y-70962051D01*
X46198170Y-70962052D01*
X46391456Y-71000500D01*
X46391459Y-71000500D01*
X47688543Y-71000500D01*
X47818582Y-70974632D01*
X47881835Y-70962051D01*
X48063914Y-70886632D01*
X48227782Y-70777139D01*
X48367139Y-70637782D01*
X48476632Y-70473914D01*
X48552051Y-70291835D01*
X48584498Y-70128716D01*
X48590500Y-70098543D01*
X48590500Y-69901457D01*
X48585872Y-69878193D01*
X48592099Y-69808601D01*
X48634961Y-69753423D01*
X48700850Y-69730178D01*
X48707489Y-69730000D01*
X48727828Y-69730000D01*
X48727844Y-69729999D01*
X48787372Y-69723598D01*
X48787379Y-69723596D01*
X48922086Y-69673354D01*
X48922093Y-69673350D01*
X49037187Y-69587190D01*
X49037190Y-69587187D01*
X49123350Y-69472093D01*
X49123354Y-69472086D01*
X49173596Y-69337379D01*
X49173598Y-69337372D01*
X49179999Y-69277844D01*
X49180000Y-69277827D01*
X49180000Y-69029500D01*
X49199685Y-68962461D01*
X49252489Y-68916706D01*
X49304000Y-68905500D01*
X49748816Y-68905500D01*
X49815855Y-68925185D01*
X49836497Y-68941819D01*
X49878078Y-68983400D01*
X49911563Y-69044723D01*
X49906579Y-69114415D01*
X49883037Y-69151045D01*
X49884233Y-69152067D01*
X49881066Y-69155774D01*
X49728368Y-69365945D01*
X49610422Y-69597423D01*
X49530140Y-69844506D01*
X49489500Y-70101097D01*
X49489500Y-76419902D01*
X49530139Y-76676493D01*
X49559050Y-76765468D01*
X49568438Y-76794363D01*
X49568444Y-76794379D01*
X49568444Y-76794380D01*
X49610419Y-76923570D01*
X49610420Y-76923573D01*
X49686930Y-77073730D01*
X49728365Y-77155051D01*
X49881069Y-77365229D01*
X50064771Y-77548931D01*
X50274949Y-77701635D01*
X50506427Y-77819579D01*
X50567018Y-77839265D01*
X50567019Y-77839266D01*
X50604912Y-77851578D01*
X50753507Y-77899860D01*
X50826820Y-77911471D01*
X51010098Y-77940500D01*
X51010103Y-77940500D01*
X51269902Y-77940500D01*
X51512811Y-77902027D01*
X51532209Y-77900500D01*
X65729902Y-77900500D01*
X65872450Y-77877922D01*
X65986493Y-77859860D01*
X66133398Y-77812126D01*
X66172977Y-77799267D01*
X66172978Y-77799267D01*
X66216060Y-77785268D01*
X66233573Y-77779579D01*
X66465051Y-77661635D01*
X66675229Y-77508931D01*
X67694168Y-76489992D01*
X68744671Y-76489992D01*
X68744671Y-76490007D01*
X68763964Y-76784363D01*
X68763965Y-76784373D01*
X68763966Y-76784380D01*
X68763968Y-76784390D01*
X68821518Y-77073716D01*
X68821521Y-77073730D01*
X68916349Y-77353080D01*
X69046825Y-77617660D01*
X69046829Y-77617667D01*
X69210725Y-77862955D01*
X69405241Y-78084758D01*
X69627044Y-78279274D01*
X69827866Y-78413459D01*
X69872335Y-78443172D01*
X70136923Y-78573652D01*
X70416278Y-78668481D01*
X70705620Y-78726034D01*
X70733888Y-78727886D01*
X70999993Y-78745329D01*
X71000000Y-78745329D01*
X71000007Y-78745329D01*
X71235675Y-78729881D01*
X71294380Y-78726034D01*
X71583722Y-78668481D01*
X71863077Y-78573652D01*
X72127665Y-78443172D01*
X72372957Y-78279273D01*
X72594758Y-78084758D01*
X72789273Y-77862957D01*
X72953172Y-77617665D01*
X73083652Y-77353077D01*
X73178481Y-77073722D01*
X73236034Y-76784380D01*
X73251110Y-76554367D01*
X73255329Y-76490007D01*
X73255329Y-76489992D01*
X73236035Y-76195636D01*
X73236034Y-76195620D01*
X73178481Y-75906278D01*
X73083652Y-75626923D01*
X72953172Y-75362336D01*
X72789273Y-75117043D01*
X72746655Y-75068447D01*
X72594758Y-74895241D01*
X72372955Y-74700725D01*
X72127667Y-74536829D01*
X72127660Y-74536825D01*
X71863080Y-74406349D01*
X71583730Y-74311521D01*
X71583724Y-74311519D01*
X71583722Y-74311519D01*
X71294380Y-74253966D01*
X71294373Y-74253965D01*
X71294363Y-74253964D01*
X71000007Y-74234671D01*
X70999993Y-74234671D01*
X70705636Y-74253964D01*
X70705624Y-74253965D01*
X70705620Y-74253966D01*
X70705612Y-74253967D01*
X70705609Y-74253968D01*
X70416283Y-74311518D01*
X70416269Y-74311521D01*
X70136919Y-74406349D01*
X69872334Y-74536828D01*
X69627041Y-74700728D01*
X69405241Y-74895241D01*
X69210728Y-75117041D01*
X69046828Y-75362334D01*
X68916349Y-75626919D01*
X68821521Y-75906269D01*
X68821518Y-75906283D01*
X68763968Y-76195609D01*
X68763964Y-76195636D01*
X68744671Y-76489992D01*
X67694168Y-76489992D01*
X68038931Y-76145229D01*
X68191635Y-75935051D01*
X68309579Y-75703573D01*
X68337894Y-75616427D01*
X68389860Y-75456493D01*
X68412539Y-75313298D01*
X68430500Y-75199902D01*
X68430500Y-70725021D01*
X68450185Y-70657982D01*
X68466815Y-70637344D01*
X68817341Y-70286817D01*
X68878664Y-70253333D01*
X68905022Y-70250499D01*
X71147871Y-70250499D01*
X71147872Y-70250499D01*
X71207483Y-70244091D01*
X71342331Y-70193796D01*
X71457546Y-70107546D01*
X71543796Y-69992331D01*
X71594091Y-69857483D01*
X71600500Y-69797873D01*
X71600499Y-67102128D01*
X71594091Y-67042517D01*
X71574128Y-66988994D01*
X71543797Y-66907671D01*
X71543793Y-66907664D01*
X71457547Y-66792455D01*
X71457544Y-66792452D01*
X71342335Y-66706206D01*
X71342328Y-66706202D01*
X71207482Y-66655908D01*
X71207483Y-66655908D01*
X71147883Y-66649501D01*
X71147881Y-66649500D01*
X71147873Y-66649500D01*
X71147865Y-66649500D01*
X68624431Y-66649500D01*
X68559499Y-66630433D01*
X68559207Y-66630911D01*
X68557442Y-66629829D01*
X68557392Y-66629815D01*
X68557164Y-66629659D01*
X68555059Y-66628369D01*
X68323573Y-66510420D01*
X68323567Y-66510418D01*
X68259419Y-66489576D01*
X68259418Y-66489576D01*
X68076493Y-66430140D01*
X67819902Y-66389500D01*
X67819897Y-66389500D01*
X67315103Y-66389500D01*
X67315098Y-66389500D01*
X67058506Y-66430140D01*
X66811423Y-66510422D01*
X66579945Y-66628368D01*
X66369774Y-66781066D01*
X66369768Y-66781071D01*
X66186071Y-66964768D01*
X66186066Y-66964774D01*
X66033368Y-67174945D01*
X65915422Y-67406423D01*
X65835140Y-67653506D01*
X65794500Y-67910097D01*
X65794500Y-68169902D01*
X65835140Y-68426494D01*
X65835140Y-68426497D01*
X65854380Y-68485709D01*
X65856375Y-68555550D01*
X65824131Y-68611708D01*
X65521068Y-68914772D01*
X65419818Y-69054130D01*
X65364487Y-69096795D01*
X65294874Y-69102774D01*
X65233079Y-69070168D01*
X65198722Y-69009329D01*
X65195500Y-68981244D01*
X65195500Y-63369995D01*
X67994953Y-63369995D01*
X67994953Y-63370004D01*
X68015113Y-63639026D01*
X68015113Y-63639028D01*
X68075142Y-63902033D01*
X68075148Y-63902052D01*
X68173709Y-64153181D01*
X68173708Y-64153181D01*
X68308602Y-64386822D01*
X68362294Y-64454151D01*
X68362295Y-64454151D01*
X69198958Y-63617488D01*
X69223978Y-63677890D01*
X69295112Y-63784351D01*
X69385649Y-63874888D01*
X69492110Y-63946022D01*
X69552510Y-63971041D01*
X68714848Y-64808702D01*
X68897483Y-64933220D01*
X68897485Y-64933221D01*
X69140539Y-65050269D01*
X69140537Y-65050269D01*
X69398337Y-65129790D01*
X69398343Y-65129792D01*
X69665101Y-65169999D01*
X69665110Y-65170000D01*
X69934890Y-65170000D01*
X69934898Y-65169999D01*
X70201656Y-65129792D01*
X70201662Y-65129790D01*
X70459461Y-65050269D01*
X70702521Y-64933218D01*
X70885150Y-64808702D01*
X70047488Y-63971041D01*
X70107890Y-63946022D01*
X70214351Y-63874888D01*
X70304888Y-63784351D01*
X70376022Y-63677890D01*
X70401041Y-63617489D01*
X71237703Y-64454151D01*
X71237704Y-64454150D01*
X71291393Y-64386828D01*
X71291400Y-64386817D01*
X71426290Y-64153181D01*
X71524851Y-63902052D01*
X71524857Y-63902033D01*
X71584886Y-63639028D01*
X71584886Y-63639026D01*
X71605047Y-63370004D01*
X71605047Y-63369995D01*
X71584886Y-63100973D01*
X71584886Y-63100971D01*
X71524857Y-62837966D01*
X71524851Y-62837947D01*
X71426290Y-62586818D01*
X71426291Y-62586818D01*
X71291397Y-62353177D01*
X71237704Y-62285847D01*
X70401041Y-63122510D01*
X70376022Y-63062110D01*
X70304888Y-62955649D01*
X70214351Y-62865112D01*
X70107890Y-62793978D01*
X70047488Y-62768958D01*
X70885150Y-61931296D01*
X70702517Y-61806779D01*
X70702516Y-61806778D01*
X70459460Y-61689730D01*
X70459462Y-61689730D01*
X70201662Y-61610209D01*
X70201656Y-61610207D01*
X69934898Y-61570000D01*
X69665101Y-61570000D01*
X69398343Y-61610207D01*
X69398337Y-61610209D01*
X69140538Y-61689730D01*
X68897485Y-61806778D01*
X68897476Y-61806783D01*
X68714848Y-61931296D01*
X69552511Y-62768958D01*
X69492110Y-62793978D01*
X69385649Y-62865112D01*
X69295112Y-62955649D01*
X69223978Y-63062110D01*
X69198958Y-63122511D01*
X68362295Y-62285848D01*
X68308600Y-62353180D01*
X68173709Y-62586818D01*
X68075148Y-62837947D01*
X68075142Y-62837966D01*
X68015113Y-63100971D01*
X68015113Y-63100973D01*
X67994953Y-63369995D01*
X65195500Y-63369995D01*
X65195500Y-59788692D01*
X65163777Y-59629216D01*
X65163776Y-59629215D01*
X65163776Y-59629211D01*
X65126817Y-59539983D01*
X65101549Y-59478980D01*
X65101547Y-59478976D01*
X65011211Y-59343779D01*
X65011209Y-59343776D01*
X65011208Y-59343775D01*
X64896225Y-59228792D01*
X64785093Y-59117660D01*
X64611228Y-58943794D01*
X64611220Y-58943788D01*
X64476023Y-58853452D01*
X64476019Y-58853450D01*
X64325793Y-58791225D01*
X64325783Y-58791222D01*
X64166307Y-58759500D01*
X64166305Y-58759500D01*
X59026407Y-58759500D01*
X58959368Y-58739815D01*
X58913613Y-58687011D01*
X58903669Y-58617853D01*
X58920869Y-58570402D01*
X58980450Y-58473807D01*
X58980453Y-58473800D01*
X59034680Y-58310152D01*
X59044999Y-58209154D01*
X59045000Y-58209141D01*
X59045000Y-58110000D01*
X57944000Y-58110000D01*
X57876961Y-58090315D01*
X57831206Y-58037511D01*
X57820000Y-57986000D01*
X57820000Y-57610000D01*
X58320000Y-57610000D01*
X59044999Y-57610000D01*
X59044999Y-57510860D01*
X59044998Y-57510845D01*
X59034680Y-57409847D01*
X58980453Y-57246199D01*
X58980448Y-57246188D01*
X58889947Y-57099465D01*
X58889944Y-57099461D01*
X58768038Y-56977555D01*
X58768034Y-56977552D01*
X58621311Y-56887051D01*
X58621300Y-56887046D01*
X58457652Y-56832819D01*
X58356654Y-56822500D01*
X58320000Y-56822500D01*
X58320000Y-57610000D01*
X57820000Y-57610000D01*
X57820000Y-56822500D01*
X57783361Y-56822500D01*
X57783343Y-56822501D01*
X57682347Y-56832819D01*
X57518699Y-56887046D01*
X57518694Y-56887048D01*
X57385622Y-56969129D01*
X57318229Y-56987569D01*
X57255429Y-56969129D01*
X57119340Y-56885189D01*
X57119335Y-56885187D01*
X57119334Y-56885186D01*
X56952797Y-56830001D01*
X56952795Y-56830000D01*
X56850010Y-56819500D01*
X55849998Y-56819500D01*
X55849980Y-56819501D01*
X55747203Y-56830000D01*
X55747200Y-56830001D01*
X55580668Y-56885185D01*
X55580659Y-56885189D01*
X55428883Y-56978805D01*
X55361491Y-56997245D01*
X55298691Y-56978805D01*
X55179340Y-56905189D01*
X55179335Y-56905187D01*
X55179334Y-56905186D01*
X55012797Y-56850001D01*
X55012795Y-56850000D01*
X54910010Y-56839500D01*
X53909998Y-56839500D01*
X53909980Y-56839501D01*
X53807203Y-56850000D01*
X53807200Y-56850001D01*
X53640668Y-56905185D01*
X53640663Y-56905187D01*
X53491342Y-56997289D01*
X53367289Y-57121342D01*
X53275187Y-57270663D01*
X53275186Y-57270666D01*
X53220001Y-57437203D01*
X53220001Y-57437204D01*
X53220000Y-57437204D01*
X53209500Y-57539983D01*
X53209500Y-58340001D01*
X53209501Y-58340019D01*
X53220000Y-58442796D01*
X53220001Y-58442799D01*
X53275185Y-58609331D01*
X53275187Y-58609336D01*
X53367289Y-58758657D01*
X53460951Y-58852319D01*
X53494436Y-58913642D01*
X53489452Y-58983334D01*
X53460951Y-59027681D01*
X53367289Y-59121342D01*
X53275187Y-59270663D01*
X53275186Y-59270666D01*
X53220001Y-59437203D01*
X53220001Y-59437204D01*
X53220000Y-59437204D01*
X53209500Y-59539983D01*
X53209500Y-60340001D01*
X53209501Y-60340019D01*
X53220000Y-60442796D01*
X53220001Y-60442799D01*
X53268167Y-60588152D01*
X53275186Y-60609334D01*
X53367288Y-60758656D01*
X53491344Y-60882712D01*
X53640666Y-60974814D01*
X53724505Y-61002595D01*
X53781948Y-61042366D01*
X53808772Y-61106882D01*
X53809500Y-61120300D01*
X53809500Y-61199800D01*
X53789815Y-61266839D01*
X53737011Y-61312594D01*
X53685500Y-61323800D01*
X53375498Y-61323800D01*
X53338632Y-61326701D01*
X53338626Y-61326702D01*
X53180806Y-61372553D01*
X53154319Y-61388218D01*
X53086594Y-61405398D01*
X53028081Y-61388218D01*
X53001593Y-61372553D01*
X52843773Y-61326702D01*
X52843767Y-61326701D01*
X52806901Y-61323800D01*
X52806894Y-61323800D01*
X52784397Y-61323800D01*
X52717358Y-61304115D01*
X52696716Y-61287481D01*
X52627590Y-61218355D01*
X52627588Y-61218352D01*
X52508718Y-61099482D01*
X52508716Y-61099480D01*
X52371785Y-61020423D01*
X52219058Y-60979499D01*
X52219057Y-60979499D01*
X52060943Y-60979499D01*
X51981010Y-61000917D01*
X51908216Y-61020422D01*
X51873441Y-61040500D01*
X51873440Y-61040499D01*
X51771287Y-61099477D01*
X51771282Y-61099481D01*
X51284217Y-61586546D01*
X51284214Y-61586548D01*
X51284215Y-61586549D01*
X51179480Y-61691284D01*
X51150613Y-61741284D01*
X51100423Y-61828215D01*
X51059499Y-61980943D01*
X51059499Y-61980945D01*
X51059499Y-62149046D01*
X51059500Y-62149059D01*
X51059500Y-63304917D01*
X51039815Y-63371956D01*
X50987011Y-63417711D01*
X50921617Y-63428137D01*
X50800004Y-63414435D01*
X50799996Y-63414435D01*
X50620750Y-63434630D01*
X50620745Y-63434631D01*
X50450476Y-63494211D01*
X50297737Y-63590184D01*
X50170184Y-63717737D01*
X50170182Y-63717740D01*
X50152128Y-63746473D01*
X50099793Y-63792764D01*
X50047135Y-63804500D01*
X49299663Y-63804500D01*
X49232624Y-63784815D01*
X49186869Y-63732011D01*
X49176374Y-63693756D01*
X49174091Y-63672517D01*
X49174090Y-63672514D01*
X49173632Y-63668252D01*
X49173632Y-63641745D01*
X49174089Y-63637486D01*
X49174091Y-63637483D01*
X49180500Y-63577873D01*
X49180499Y-62882128D01*
X49176067Y-62840898D01*
X49176068Y-62814393D01*
X49179999Y-62777833D01*
X49180000Y-62777819D01*
X49180000Y-62680000D01*
X49179948Y-62679948D01*
X49113085Y-62660315D01*
X49080859Y-62630313D01*
X49037546Y-62572454D01*
X49014709Y-62555358D01*
X48922335Y-62486206D01*
X48922328Y-62486202D01*
X48787482Y-62435908D01*
X48787483Y-62435908D01*
X48727883Y-62429501D01*
X48727881Y-62429500D01*
X48727873Y-62429500D01*
X48727865Y-62429500D01*
X48199006Y-62429500D01*
X48131967Y-62409815D01*
X48086212Y-62357011D01*
X48076268Y-62287853D01*
X48105293Y-62224297D01*
X48130114Y-62202398D01*
X48132363Y-62200895D01*
X48199040Y-62180020D01*
X48201251Y-62180000D01*
X49180000Y-62180000D01*
X49180000Y-62082172D01*
X49179999Y-62082155D01*
X49173598Y-62022627D01*
X49173596Y-62022620D01*
X49123354Y-61887913D01*
X49123350Y-61887906D01*
X49037190Y-61772812D01*
X49037187Y-61772809D01*
X48922093Y-61686649D01*
X48922086Y-61686645D01*
X48787379Y-61636403D01*
X48787372Y-61636401D01*
X48727844Y-61630000D01*
X48707489Y-61630000D01*
X48640450Y-61610315D01*
X48594695Y-61557511D01*
X48584751Y-61488353D01*
X48585872Y-61481807D01*
X48590500Y-61458542D01*
X48590500Y-61261456D01*
X48552052Y-61068170D01*
X48552051Y-61068169D01*
X48552051Y-61068165D01*
X48540592Y-61040500D01*
X48476635Y-60886092D01*
X48476628Y-60886079D01*
X48367139Y-60722218D01*
X48367136Y-60722214D01*
X48227785Y-60582863D01*
X48227781Y-60582860D01*
X48063920Y-60473371D01*
X48063907Y-60473364D01*
X47881839Y-60397950D01*
X47881829Y-60397947D01*
X47688543Y-60359500D01*
X47688541Y-60359500D01*
X46391459Y-60359500D01*
X46391457Y-60359500D01*
X46198170Y-60397947D01*
X46198160Y-60397950D01*
X46016092Y-60473364D01*
X46016079Y-60473371D01*
X45852218Y-60582860D01*
X45852214Y-60582863D01*
X45811899Y-60623180D01*
X45750576Y-60656666D01*
X45724217Y-60659500D01*
X43925783Y-60659500D01*
X43858744Y-60639815D01*
X43838101Y-60623180D01*
X43797785Y-60582863D01*
X43797781Y-60582860D01*
X43633920Y-60473371D01*
X43633910Y-60473366D01*
X43514329Y-60423834D01*
X43459926Y-60379993D01*
X43437861Y-60313699D01*
X43455140Y-60245999D01*
X43506278Y-60198389D01*
X43537582Y-60187658D01*
X43583722Y-60178481D01*
X43863077Y-60083652D01*
X44127665Y-59953172D01*
X44372957Y-59789273D01*
X44594758Y-59594758D01*
X44789273Y-59372957D01*
X44953172Y-59127665D01*
X45083652Y-58863077D01*
X45178481Y-58583722D01*
X45236034Y-58294380D01*
X45248119Y-58110000D01*
X45255329Y-58000007D01*
X45255329Y-57999992D01*
X45236035Y-57705636D01*
X45236034Y-57705620D01*
X45178481Y-57416278D01*
X45083652Y-57136923D01*
X44953172Y-56872336D01*
X44946490Y-56862336D01*
X44898042Y-56789829D01*
X44789273Y-56627043D01*
X44679208Y-56501538D01*
X44594758Y-56405241D01*
X44372955Y-56210725D01*
X44127667Y-56046829D01*
X44127660Y-56046825D01*
X43863080Y-55916349D01*
X43583730Y-55821521D01*
X43583724Y-55821519D01*
X43583722Y-55821519D01*
X43294380Y-55763966D01*
X43294373Y-55763965D01*
X43294363Y-55763964D01*
X43054367Y-55748234D01*
X42988758Y-55724207D01*
X42946555Y-55668524D01*
X42941156Y-55598863D01*
X42974276Y-55537342D01*
X43035399Y-55503493D01*
X43062477Y-55500500D01*
X43065892Y-55500500D01*
X70784954Y-55500500D01*
X70851993Y-55520185D01*
G37*
%TD.AperFunction*%
%TA.AperFunction,Conductor*%
G36*
X63487539Y-60430185D02*
G01*
X63533294Y-60482989D01*
X63544500Y-60534500D01*
X63544500Y-70370500D01*
X63524815Y-70437539D01*
X63472011Y-70483294D01*
X63420500Y-70494500D01*
X62732569Y-70494500D01*
X62665530Y-70474815D01*
X62619775Y-70422011D01*
X62609831Y-70352853D01*
X62638856Y-70289297D01*
X62668420Y-70264383D01*
X62688657Y-70252148D01*
X62688665Y-70252143D01*
X62698627Y-70242180D01*
X62698627Y-70242179D01*
X61804128Y-69347680D01*
X61770643Y-69286357D01*
X61772528Y-69259999D01*
X62423553Y-69259999D01*
X62423553Y-69260001D01*
X62947860Y-69784308D01*
X62950000Y-69760768D01*
X62950000Y-68759230D01*
X62947860Y-68735691D01*
X62947860Y-68735690D01*
X62423553Y-69259999D01*
X61772528Y-69259999D01*
X61775627Y-69216665D01*
X61804128Y-69172318D01*
X62070000Y-68906447D01*
X62698627Y-68277819D01*
X62698627Y-68277818D01*
X62688662Y-68267853D01*
X62688657Y-68267850D01*
X62545267Y-68181168D01*
X62545261Y-68181166D01*
X62385294Y-68131318D01*
X62385287Y-68131316D01*
X62315769Y-68125000D01*
X61824231Y-68125000D01*
X61754712Y-68131316D01*
X61754705Y-68131318D01*
X61594739Y-68181166D01*
X61499149Y-68238951D01*
X61431594Y-68256786D01*
X61370851Y-68238951D01*
X61275260Y-68181166D01*
X61275261Y-68181166D01*
X61115294Y-68131318D01*
X61115287Y-68131316D01*
X61045769Y-68125000D01*
X60554231Y-68125000D01*
X60484712Y-68131316D01*
X60484705Y-68131318D01*
X60324739Y-68181166D01*
X60229149Y-68238951D01*
X60161594Y-68256786D01*
X60100851Y-68238951D01*
X60005260Y-68181166D01*
X60005261Y-68181166D01*
X59845294Y-68131318D01*
X59845287Y-68131316D01*
X59775769Y-68125000D01*
X59284231Y-68125000D01*
X59214712Y-68131316D01*
X59214705Y-68131318D01*
X59054738Y-68181166D01*
X59054737Y-68181167D01*
X58911337Y-68267854D01*
X58911332Y-68267859D01*
X58901371Y-68277818D01*
X59795871Y-69172318D01*
X59829356Y-69233641D01*
X59824372Y-69303333D01*
X59795871Y-69347680D01*
X58901372Y-70242179D01*
X58901372Y-70242180D01*
X58911338Y-70252146D01*
X58911342Y-70252149D01*
X59054732Y-70338831D01*
X59054738Y-70338833D01*
X59214705Y-70388681D01*
X59214712Y-70388683D01*
X59284231Y-70395000D01*
X59539726Y-70395000D01*
X59606765Y-70414685D01*
X59652520Y-70467489D01*
X59662464Y-70536647D01*
X59633439Y-70600203D01*
X59608616Y-70622102D01*
X59586820Y-70636666D01*
X59568955Y-70648603D01*
X59502277Y-70669480D01*
X59500065Y-70669500D01*
X59099998Y-70669500D01*
X59099980Y-70669501D01*
X58997203Y-70680000D01*
X58997200Y-70680001D01*
X58830668Y-70735185D01*
X58830659Y-70735189D01*
X58707464Y-70811177D01*
X58640072Y-70829617D01*
X58573409Y-70808694D01*
X58564576Y-70801440D01*
X58564319Y-70801766D01*
X58558658Y-70797290D01*
X58558656Y-70797288D01*
X58409334Y-70705186D01*
X58364893Y-70690459D01*
X58307449Y-70650687D01*
X58280679Y-70586637D01*
X58265369Y-70450749D01*
X58265368Y-70450745D01*
X58259165Y-70433017D01*
X58205789Y-70280478D01*
X58109816Y-70127738D01*
X57982262Y-70000184D01*
X57841823Y-69911940D01*
X57829521Y-69904210D01*
X57659249Y-69844630D01*
X57594869Y-69837376D01*
X57530455Y-69810309D01*
X57521073Y-69801837D01*
X57337590Y-69618355D01*
X57337588Y-69618352D01*
X57266819Y-69547583D01*
X57233334Y-69486260D01*
X57230500Y-69459902D01*
X57230500Y-69105724D01*
X57250185Y-69038685D01*
X57256521Y-69029723D01*
X57259278Y-69026167D01*
X57259281Y-69026165D01*
X57342944Y-68884698D01*
X57379396Y-68759229D01*
X58650000Y-68759229D01*
X58650000Y-69760784D01*
X58652137Y-69784307D01*
X58652138Y-69784308D01*
X59176447Y-69260000D01*
X58652138Y-68735691D01*
X58650000Y-68759229D01*
X57379396Y-68759229D01*
X57388798Y-68726869D01*
X57391700Y-68689994D01*
X57391700Y-67183606D01*
X57388798Y-67146731D01*
X57388797Y-67146726D01*
X57342946Y-66988907D01*
X57342944Y-66988905D01*
X57342944Y-66988902D01*
X57304764Y-66924343D01*
X57287582Y-66856623D01*
X57291722Y-66829134D01*
X57310500Y-66759057D01*
X57310500Y-66600943D01*
X57310500Y-66583032D01*
X57330185Y-66515993D01*
X57347721Y-66494458D01*
X57352704Y-66489576D01*
X58270005Y-65590868D01*
X58331666Y-65558014D01*
X58342881Y-65556225D01*
X58439255Y-65545368D01*
X58609522Y-65485789D01*
X58762262Y-65389816D01*
X58889816Y-65262262D01*
X58904729Y-65238528D01*
X58957062Y-65192238D01*
X59009722Y-65180501D01*
X59036653Y-65180501D01*
X59036669Y-65180500D01*
X60233331Y-65180500D01*
X60233347Y-65180501D01*
X60240943Y-65180501D01*
X60399054Y-65180501D01*
X60399057Y-65180501D01*
X60551785Y-65139577D01*
X60603841Y-65109522D01*
X60688716Y-65060520D01*
X60800520Y-64948716D01*
X60800520Y-64948714D01*
X60810724Y-64938511D01*
X60810728Y-64938506D01*
X61208506Y-64540728D01*
X61208511Y-64540724D01*
X61218714Y-64530520D01*
X61218716Y-64530520D01*
X61330520Y-64418716D01*
X61384355Y-64325470D01*
X61409577Y-64281785D01*
X61450500Y-64129057D01*
X61450500Y-63970943D01*
X61450500Y-62842930D01*
X61470185Y-62775891D01*
X61522989Y-62730136D01*
X61592147Y-62720192D01*
X61611389Y-62724544D01*
X61754620Y-62769177D01*
X61824199Y-62775500D01*
X62315800Y-62775499D01*
X62315808Y-62775499D01*
X62385376Y-62769178D01*
X62385383Y-62769176D01*
X62545471Y-62719291D01*
X62688972Y-62632542D01*
X62807542Y-62513972D01*
X62894291Y-62370471D01*
X62944177Y-62210380D01*
X62950500Y-62140801D01*
X62950499Y-61139200D01*
X62950499Y-61139191D01*
X62944178Y-61069624D01*
X62944176Y-61069616D01*
X62894291Y-60909529D01*
X62894290Y-60909527D01*
X62807545Y-60766032D01*
X62807542Y-60766028D01*
X62726819Y-60685305D01*
X62693334Y-60623982D01*
X62690500Y-60597624D01*
X62690500Y-60590942D01*
X62690458Y-60590624D01*
X62690419Y-60590087D01*
X62690141Y-60588152D01*
X62689934Y-60586648D01*
X62689656Y-60584535D01*
X62689539Y-60583967D01*
X62689497Y-60583678D01*
X62689497Y-60583671D01*
X62689269Y-60582860D01*
X62685106Y-60568042D01*
X62685922Y-60498177D01*
X62724381Y-60439844D01*
X62788272Y-60411564D01*
X62804483Y-60410500D01*
X63420500Y-60410500D01*
X63487539Y-60430185D01*
G37*
%TD.AperFunction*%
%TA.AperFunction,Conductor*%
G36*
X55154320Y-63935382D02*
G01*
X55180802Y-63951044D01*
X55250312Y-63971238D01*
X55303398Y-64002633D01*
X55435139Y-64134374D01*
X55435149Y-64134385D01*
X55439479Y-64138715D01*
X55439480Y-64138716D01*
X55499944Y-64199180D01*
X55533428Y-64260501D01*
X55528444Y-64330193D01*
X55486573Y-64386127D01*
X55421109Y-64410544D01*
X55386482Y-64408151D01*
X55321316Y-64394300D01*
X55131081Y-64394300D01*
X54944999Y-64433852D01*
X54785374Y-64504922D01*
X55226200Y-64945747D01*
X55226201Y-64945747D01*
X55667908Y-64504038D01*
X55674672Y-64438173D01*
X55718253Y-64383561D01*
X55784441Y-64361181D01*
X55821549Y-64365304D01*
X55840943Y-64370501D01*
X55840945Y-64370501D01*
X56006653Y-64370501D01*
X56006669Y-64370500D01*
X57373438Y-64370500D01*
X57440477Y-64390185D01*
X57486232Y-64442989D01*
X57496176Y-64512147D01*
X57490480Y-64535453D01*
X57474630Y-64580748D01*
X57465908Y-64658162D01*
X57438841Y-64722576D01*
X57429448Y-64732871D01*
X56473816Y-65668731D01*
X56462552Y-65678506D01*
X56461288Y-65679476D01*
X56411287Y-65729478D01*
X56411282Y-65729483D01*
X56388072Y-65752691D01*
X56387157Y-65753597D01*
X56330065Y-65809509D01*
X56325450Y-65814662D01*
X56302645Y-65837006D01*
X56294007Y-65846754D01*
X56229480Y-65911282D01*
X56190838Y-65978214D01*
X56190837Y-65978215D01*
X56162381Y-66027501D01*
X56111814Y-66075716D01*
X56054995Y-66089500D01*
X55786669Y-66089500D01*
X55786653Y-66089499D01*
X55779057Y-66089499D01*
X55714208Y-66089499D01*
X55647169Y-66069814D01*
X55626527Y-66053180D01*
X55226201Y-65652853D01*
X55226200Y-65652853D01*
X54785375Y-66093676D01*
X54785375Y-66093677D01*
X54944994Y-66164745D01*
X54944999Y-66164747D01*
X55078024Y-66193022D01*
X55139506Y-66226214D01*
X55173282Y-66287377D01*
X55168630Y-66357092D01*
X55150625Y-66389791D01*
X55149479Y-66391283D01*
X55102038Y-66473454D01*
X55102039Y-66473455D01*
X55089913Y-66494458D01*
X55077480Y-66515993D01*
X55070422Y-66528217D01*
X55068556Y-66535182D01*
X55032188Y-66594841D01*
X54969340Y-66625368D01*
X54914187Y-66622160D01*
X54843773Y-66601702D01*
X54843767Y-66601701D01*
X54806901Y-66598800D01*
X54806894Y-66598800D01*
X54375506Y-66598800D01*
X54375498Y-66598800D01*
X54338632Y-66601701D01*
X54338626Y-66601702D01*
X54180806Y-66647553D01*
X54154319Y-66663218D01*
X54086594Y-66680398D01*
X54028081Y-66663218D01*
X54015720Y-66655908D01*
X54001598Y-66647556D01*
X54001593Y-66647553D01*
X53843773Y-66601702D01*
X53843767Y-66601701D01*
X53806901Y-66598800D01*
X53806894Y-66598800D01*
X53375506Y-66598800D01*
X53375498Y-66598800D01*
X53338632Y-66601701D01*
X53338626Y-66601702D01*
X53180806Y-66647553D01*
X53154319Y-66663218D01*
X53086594Y-66680398D01*
X53028081Y-66663218D01*
X53015722Y-66655909D01*
X53001598Y-66647556D01*
X53001596Y-66647555D01*
X53001592Y-66647553D01*
X53001593Y-66647553D01*
X52846994Y-66602638D01*
X52788108Y-66565032D01*
X52758902Y-66501559D01*
X52761814Y-66451471D01*
X52770500Y-66419057D01*
X52770500Y-66093676D01*
X53515375Y-66093676D01*
X53515375Y-66093677D01*
X53674994Y-66164745D01*
X53674999Y-66164747D01*
X53861081Y-66204300D01*
X54051319Y-66204300D01*
X54237400Y-66164747D01*
X54237405Y-66164745D01*
X54397023Y-66093677D01*
X54397023Y-66093676D01*
X53956201Y-65652853D01*
X53956200Y-65652853D01*
X53515375Y-66093676D01*
X52770500Y-66093676D01*
X52770500Y-65299300D01*
X53046215Y-65299300D01*
X53066101Y-65488500D01*
X53124887Y-65669425D01*
X53164283Y-65737661D01*
X53164284Y-65737661D01*
X53602647Y-65299300D01*
X53551924Y-65248577D01*
X53701200Y-65248577D01*
X53701200Y-65350023D01*
X53740021Y-65443746D01*
X53811754Y-65515479D01*
X53905477Y-65554300D01*
X54006923Y-65554300D01*
X54100646Y-65515479D01*
X54172379Y-65443746D01*
X54211200Y-65350023D01*
X54211200Y-65299300D01*
X54309753Y-65299300D01*
X54591200Y-65580747D01*
X54872647Y-65299300D01*
X54821924Y-65248577D01*
X54971200Y-65248577D01*
X54971200Y-65350023D01*
X55010021Y-65443746D01*
X55081754Y-65515479D01*
X55175477Y-65554300D01*
X55276923Y-65554300D01*
X55370646Y-65515479D01*
X55442379Y-65443746D01*
X55481200Y-65350023D01*
X55481200Y-65299299D01*
X55579753Y-65299299D01*
X55579753Y-65299301D01*
X56018114Y-65737662D01*
X56057514Y-65669421D01*
X56116298Y-65488500D01*
X56136184Y-65299300D01*
X56116298Y-65110099D01*
X56057515Y-64929181D01*
X56057512Y-64929175D01*
X56018114Y-64860936D01*
X55579753Y-65299299D01*
X55481200Y-65299299D01*
X55481200Y-65248577D01*
X55442379Y-65154854D01*
X55370646Y-65083121D01*
X55276923Y-65044300D01*
X55175477Y-65044300D01*
X55081754Y-65083121D01*
X55010021Y-65154854D01*
X54971200Y-65248577D01*
X54821924Y-65248577D01*
X54591200Y-65017853D01*
X54309753Y-65299300D01*
X54211200Y-65299300D01*
X54211200Y-65248577D01*
X54172379Y-65154854D01*
X54100646Y-65083121D01*
X54006923Y-65044300D01*
X53905477Y-65044300D01*
X53811754Y-65083121D01*
X53740021Y-65154854D01*
X53701200Y-65248577D01*
X53551924Y-65248577D01*
X53164284Y-64860937D01*
X53124886Y-64929177D01*
X53066101Y-65110099D01*
X53046215Y-65299300D01*
X52770500Y-65299300D01*
X52770500Y-64617000D01*
X52790185Y-64549961D01*
X52842989Y-64504206D01*
X52894500Y-64493000D01*
X53383331Y-64493000D01*
X53383347Y-64493001D01*
X53452091Y-64493001D01*
X53519130Y-64512686D01*
X53539772Y-64529320D01*
X53956200Y-64945747D01*
X53956201Y-64945747D01*
X54397024Y-64504922D01*
X54397023Y-64504921D01*
X54237405Y-64433854D01*
X54237401Y-64433853D01*
X54081822Y-64400783D01*
X54020341Y-64367590D01*
X53986565Y-64306427D01*
X53991217Y-64236713D01*
X54019919Y-64191816D01*
X54110520Y-64101216D01*
X54146248Y-64039331D01*
X54196813Y-63991116D01*
X54265420Y-63977892D01*
X54288229Y-63982254D01*
X54338631Y-63996898D01*
X54375506Y-63999800D01*
X54375514Y-63999800D01*
X54806886Y-63999800D01*
X54806894Y-63999800D01*
X54843769Y-63996898D01*
X54843771Y-63996897D01*
X54843773Y-63996897D01*
X54901515Y-63980121D01*
X55001598Y-63951044D01*
X55011413Y-63945239D01*
X55028078Y-63935384D01*
X55095801Y-63918200D01*
X55154320Y-63935382D01*
G37*
%TD.AperFunction*%
%TD*%
M02*
