<?xml version="1.0" encoding="UTF-8"?>
<svg id="Layer_1" xmlns="http://www.w3.org/2000/svg" version="1.1" viewBox="0 0 500 500">
  <!-- Generator: Adobe Illustrator 29.1.0, SVG Export Plug-In . SVG Version: 2.1.0 Build 142)  -->
  <defs>
    <style>
      .st0 {
        fill: #050505;
      }

      .st1 {
        fill: #010101;
      }

      .st2 {
        fill: #030303;
      }

      .st3 {
        fill: #020202;
      }

      .st4 {
        fill: #040404;
      }

      .st5 {
        fill: #080808;
      }
    </style>
  </defs>
  <path class="st1" d="M299,355c3.4-19-17.6-18.7-14,0h-14v-22.5c0-.3-2.2-4.5-3.2-4.8l-10.8-.7v-14h14c-.3,5.8-.6,14.8,7.4,14,1.2-.1,5.1-1.7,5.7-2.7,2-3.2,2.2-25.3-3.6-25.3h-23.5v-22.5c0-.3-2.2-4.5-3.2-4.8l-10.8-.7c.7-3.2-.3-14-4.5-14h-23.5v-14h22.5c3.2,0,5.8-4.1,5.5-7.4-.8-8.2-7.7-6.6-14-6.6,3.4-19-17.6-18.7-14,0-4.6-.1-9.3-.5-13.1,2.7l-.9,11.3h-14c.3-3.2.3-11.8-3.2-13.3-3-1.3-25.8-1.1-30.3-.7-9.2.8-11.1,6.5-5.2,13.4l10.8.7v22.5c0,3.2,4.1,5.8,7.4,5.5,8.2-.8,6.6-7.7,6.6-14h28v14h-22.5c-.9,0-5.5,3-5.5,4.5v23.5h-14c1-11.9-1.8-15.5-14-14v-22.5c0-.3-2.2-4.5-3.2-4.8l-10.8-.7v-22.5c0-3.2-4.1-5.8-7.4-5.5-8.2.8-6.6,7.7-6.6,14h-28v-42h22.5c1.5,0,5-2.7,5.3-4.7,2.3-14.8-19-7.7-27.8-9.3,3.4-19-17.6-18.7-14,0-3.5,0-10.2-.4-12.7,2.3-3.1,3.3-.3,33.3-1.3,39.8-7.2,0-13.3-1.3-14,7.5-.6,6.8-.7,20.4,0,27.1.4,4,2,7.7,6.5,7.5,8.8-.3,7.7-7.3,7.5-14h14c-.2,3.2-.3,11.2,2.7,13.1,3,1.9,22.2,1.7,24.4-1.7l.9-11.3h14c-1,11.9,1.8,15.5,14,14v28h-28c3.4-19-17.6-18.7-14,0h-28c.3-5.8.6-14.8-7.4-14-1.2.1-5.1,1.7-5.7,2.7-2,3.2-2.2,25.3,3.6,25.3h37.5v22.5c0,2.3,3,5,5.6,5.4,5.7.8,22.7,2,22.5-6.4-.3-8.8-7.3-7.7-14-7.5v-14h28v22.5c0,.2,2.1,4.1,2.2,4.2,2.9,2.8,11.8,0,11.8-3.2v-23.5h14v28c-5.8-.3-14.8-.6-14,7.4.1,1,1.6,4.7,2.2,5.3,2.5,2.3,21.7,2,24.5-1,3.1-3.3.3-33.3,1.3-39.8,3.2.7,14-.3,14-4.5v-23.5h22.5c.3,0,4.5-2.2,4.8-3.2l.7-10.8h14v42h-22.5c-.3,0-4.5,2.2-4.8,3.2l-.7,10.8c-3.2-.3-11.8-.3-13.3,3.2-2,4.7-2.7,25.1,5.8,24.8,8.8-.3,7.7-7.3,7.5-14,11.9,1,15.5-1.8,14-14h28c-1,11.9,1.8,15.5,14,14v28h-22.5c-.3,0-4.5,2.2-4.8,3.2l-.7,10.8h-14v-14c4.6.2,13.6.6,14-5.6.1-2.7-1.2-7.2-3.9-8-3.9-1.1-20.9-1.3-23.2,2.2l-.9,11.3h-22.5c-.2,0-4.1,2.1-4.2,2.2-2.8,2.9,0,11.8,3.2,11.8h23.5v22.5c0,3.2,4.1,5.8,7.4,5.5,8.2-.8,6.6-7.7,6.6-14h14c-3.4,19,17.6,18.7,14,0h28v14h-22.5c-.3,0-4.5,2.2-4.8,3.2l-.7,10.8h-14c.3-5.8.6-14.8-7.4-14-8.8.9-7.4,13.5-6.6,20.5,1,9.2,6.5,7.5,14,7.5-.2,3.2-.3,11.2,2.7,13.1,3,1.9,22.2,1.7,24.4-1.7l.9-11.3c4.6.1,9.3.5,13.1-2.7l.9-11.3h22.5c3.2,0,5.8-4.1,5.5-7.4-.8-8.2-7.7-6.6-14-6.6v-28c11.9,1,15.5-1.8,14-14,19,3.4,18.7-17.6,0-14Z"/>
  <path class="st1" d="M477.8,411.7l-10.8-.7v-22.5c0-.2-2.1-4.1-2.2-4.2-2.1-2-22.5-2.7-25.1,2l-.7,10.8h-14v-42c19,3.4,18.7-17.6,0-14v-14c19,3.4,18.7-17.6,0-14v-42h22.5c3.2,0,5.8-4.1,5.5-7.4-.8-8.2-7.7-6.6-14-6.6v-14c5.8.3,14.8.6,14-7.4-.1-1.2-1.7-5.1-2.7-5.7-3.2-2-25.3-2.2-25.3,3.6v23.5h-25.9c2.1,9.3,6.2,18.3,5.9,28h6v14h-14v-14h8c.3-9.7-3.8-18.7-5.9-28h-16.1c.7-3.2-.3-14-4.5-14h-23.5v-28c19,3.4,18.7-17.6,0-14v-14c3.2.3,11.8.3,13.3-3.2,1.5-3.6,1.3-20.8-1.6-23.5-2.3-2.2-7.8-1.1-10,.7-2.8,2.3-1.4,8.7-1.7,12.1-3.2-.2-11.2-.3-13.1,2.7-3.5,5.5,1,51.4-.9,53.3-19-3.4-18.7,17.6,0,14-.1,4.6-.5,9.3,2.7,13.1l11.3.9v14c-10.2-1.4-19.2,3.2-10.8,13.3l10.8.7c-.1,4.6-.5,9.3,2.7,13.1l11.3.9c-.7,3.2.3,14,4.5,14h23.5v28c-11.9-1-15.5,1.8-14,14h-36.5c-3.2,0-5.8,4.1-5.5,7.4.8,8.2,7.7,6.6,14,6.6v14h-14c.3-3.2.3-11.8-3.2-13.3-3.6-1.5-20-1.2-23.1,1.3-3.1,2.5-3.1,26.1,2.8,26.1h23.5v22.5c0,.2,2.1,4.1,2.2,4.2,2.9,2.8,20.8.5,25.8,1.3-3.4,19,17.6,18.7,14,0h4.9l-1.4-14h-17.5v-42h42v42h-24.5l1.4,14h9.1v22.5c0,.9,3,5.5,4.5,5.5h23.5v14c-5.8-.3-14.8-.6-14,7.4.1,1,1.6,4.7,2.2,5.3,2.4,2.3,22.6,2.1,24.8-1.4,2.9-4.7-.5-37.9.9-39.3,8.2,2,19.3-3.4,12.1-12.3-2.4-2.9-23.5-2.9-25.4,1.5l-.7,10.8h-14v-14c11.9,1,15.5-1.8,14-14h28c0,6.2-1.1,13.2,6.5,14,10.2,1.1,29.3,1.1,18.3-13.3Z"/>
  <path class="st3" d="M327,61l-11.3-.9c-.8-.5-2-3.1-2.2-4-.9-4-1.1-31.9.4-34.4s8.5-3.6,10.8-1.4,2.2,4,2.2,4.2v22.5h14c0-6.3-1.6-13.2,6.6-14s7.4,2.3,7.4,5.5v22.5c18.7-3.6,19,17.4,0,14v14l10.8.7c4.5,1.9,4.4,23,1.5,25.4-8.9,7.3-14.3-3.8-12.3-12.1-12.2,1.5-15-2.1-14-14h-14c1.5,12.2-2.1,15-14,14v14c18.6-3.6,19.1,17.4,0,14,1.6,12.2-2.2,15-14,14v14h28v-23.5c0-4.2,10.8-5.2,14-4.5-3.6-18.7,17.4-19.1,14,0,8.8,1.6,30.1-5.5,27.8,9.3-.3,2-3.8,4.7-5.3,4.7h-36.5v23.5c0,4.2-10.8,5.2-14,4.5-1.4,1.4,2,34.7-.9,39.3s-8.5,3.6-10.8,1.4-2.2-4-2.2-4.2v-36.5h-14c1.5,12.2-2.1,15-14,14v28h23.5c1.9,0,4,4,4.3,5.8,1.4,8.8-7.3,8.5-13.8,8.2v28c7.5,0,13-1.7,14,7.5s.5,16.4-1.3,18.3c-2.5,2.7-9.3,2.3-12.7,2.3l-.7,10.8c-10.1,8.4-14.8-.5-13.3-10.8-12.2,1.5-15-2.1-14-14-18.6,3.6-19.1-17.4,0-14-1.6-12.2,2.2-15,14-14v-14l-11.3-.9c-3.2-3.8-2.8-8.4-2.7-13.1l-11.3-.9c-3.5-2.2-3.7-22.3-1.4-24.8s9.3-2.3,12.7-2.3c-1.6-12.2,2.2-15,14-14v-28h-14l-.7,10.8c-.3,1-4.5,3.2-4.8,3.2h-22.5c0,6.4,1.6,13.1-6.6,14-9.6,1-8.4-17-7.2-23.3,1-5.3,9.4-4.9,13.8-4.7l.7-10.8c.3-1,4.5-3.2,4.8-3.2h36.5c-1.5-12.2,2.1-15,14-14,1.5-13.2-6.7-31.2,14-28-1.6-12.2,2.2-15,14-14v-14Z"/>
  <path class="st4" d="M479,42.5c-3.3-9.8-11.9-19-22-22-4.7-1.4-15.3-2-25.2-2v14c7,0,14.1.2,17.5.8,9.5,1.6,16.8,10,17.7,19.3.8,8.2,1,31-2.1,37.9-3.3,7.4-9.3,11.8-17.4,12.6-8.2.8-31,1-37.9-2.1-8-3.6-11.9-9.7-12.7-18.3-.6-7.1-.9-26.1.5-32.6,1.7-8.1,9.1-15.5,17.3-16.7,3.4-.5,10.2-.8,17-.8v-14c-7.7,0-15,.3-19,.8-15.5,2.1-28.5,15.7-29.8,31.2-1.9,21.9-3.1,54.2,21,64,9.4,3.8,43.8,3.8,53.5.5,8.6-2.9,17.5-10.6,21-19,3.8-9.4,3.8-43.8.5-53.5Z"/>
  <path class="st4" d="M115,406.5c-3.3-9.8-11.9-19-22-22-4-1.2-12-1.8-20.4-2l1.5,14c4.7,0,8.8.3,11.2.7,9.5,1.6,16.8,10,17.7,19.3.8,8.2,1,31-2.1,37.9-3.3,7.4-9.3,11.8-17.4,12.6-8.2.8-31,1-37.9-2.1-8-3.6-11.9-9.7-12.7-18.3-.6-7.1-.9-26.1.5-32.6,1.7-8.1,9.1-15.5,17.3-16.7,4.4-.7,14.8-.9,23.3-.8l-1.5-14c-9.3-.2-19,0-23.9.7-15.5,2.1-28.5,15.7-29.8,31.2-1.9,21.9-3.1,54.2,21,64,9.4,3.8,43.8,3.8,53.5.5,8.6-2.9,17.5-10.6,21-19,3.8-9.4,3.8-43.8.5-53.5Z"/>
  <path class="st4" d="M115,42.5c-3.3-9.8-11.9-19-22-22-4-1.2-12.1-1.8-20.5-2l1.3,14c4.8,0,9.1.3,11.5.7,9.5,1.6,16.8,10,17.7,19.3.8,8.2,1,31-2.1,37.9-3.3,7.4-9.3,11.8-17.4,12.6-8.2.8-31,1-37.9-2.1-8-3.6-11.9-9.7-12.7-18.3-.6-7.1-.9-26.1.5-32.6,1.7-8.1,9.1-15.5,17.3-16.7,4.4-.6,14.5-.9,23-.8l-1.3-14c-9.3-.2-18.9,0-23.7.7-15.5,2.1-28.5,15.7-29.8,31.2-1.9,21.9-3.1,54.2,21,64,9.4,3.8,43.8,3.8,53.5.5,8.6-2.9,17.5-10.6,21-19,3.8-9.4,3.8-43.8.5-53.5Z"/>
  <path class="st3" d="M215,33c-3.6-18.7,17.4-19,14,0h14c-3.6-18.7,17.4-19,14,0,13.2,1.5,31.2-6.7,28,14l10.8.7c4.7,2.6,4,22.9,2,25.1s-4.3,2.1-5.3,2.2c-8,.8-7.7-8.2-7.4-14-12.2,1.6-15-2.2-14-14h-42c3.6,18.7-17.4,19-14,0h-14v42c18.6-3.6,19.1,17.4,0,14l-.7,10.8c-2.2,2.9-7.6,4.3-10.7,2.3s-2.7-4.3-2.7-4.6v-22.5c-18.7,3.6-19-17.4,0-14,1-6.4-1.8-36.6,1.3-39.8s4-2.2,4.2-2.2h22.5Z"/>
  <path class="st3" d="M201,135.5c1-5.7,17-5,21.5-4.5s6,2.4,6.5,6.6c.8,8-8.2,7.7-14,7.4v28l11.3.9c3.2,3.8,2.8,8.4,2.7,13.1,7.5,0,13-1.7,14,7.5.8,7.1,2.2,19.6-6.6,20.5s-7.7-8.2-7.4-14h-14c0,6.3,1.6,13.2-6.6,14s-7.4-2.3-7.4-5.5v-22.5h-14c3.6,18.7-17.4,19-14,0-18.7,3.6-19-17.4,0-14,1.7-8-4.9-26.8,6.6-28,8-.8,7.7,8.2,7.4,14h14c.8-7.1-1.1-16.7,0-23.5Z"/>
  <path class="st3" d="M299,429.5c.4-2.4,4.4-4.1,6.6-4.4,4.8-.7,27.4-.8,31.5.4s5.2,8.7,2.6,11.3-4,2.2-4.2,2.2h-22.5v28h14c0-7.5-1.7-13,7.5-14s14.7-.4,17.3.7,3.5,10.1,3.2,13.3c11.1-3.4,20.6,7.9,9,13.5-22.9-.3-47.9,2.1-70.6.5s-8.4-5.5-8.5-14l-10.8-.7c-4.4-1.9-4.4-23-1.5-25.4,8.9-7.3,14.3,3.8,12.3,12.1h14c.8-7.1-1.1-16.7,0-23.5Z"/>
  <path class="st3" d="M159,411l-10.8-.7c-4.5-1.9-4.4-23-1.5-25.4,8.9-7.3,14.3,3.8,12.3,12.1,8,1.7,26.8-4.9,28,6.6.8,8-8.2,7.7-14,7.4v14h14c-.2-6.8-1.3-13.8,7.5-14,8.5-.3,7.2,16.7,6.4,22.5s-3.1,5.6-5.4,5.6h-36.5l-.9,11.3c-3.8,3.2-8.4,2.8-13.1,2.7,0,6.4,1.6,13.1-6.6,14s-8.1-15.1-7.4-21.5,7.8-6.5,14-6.5c-1.6-12.2,2.2-15,14-14v-14Z"/>
  <path class="st3" d="M425,159c3,15.8-8.3,15.1-20.5,14-8.7-.7-7.4-6.8-7.5-14-18.6,3.6-19.1-17.4,0-14-3.6-18.7,17.4-19.1,14,0h14l.7-10.8c.6-1.4,3.7-2.8,5.1-3,4-.7,31.3-.8,33.6.7s2.5,4.5,2.7,5.7c.8,8-8.2,7.7-14,7.4l-.7,10.8c-.3,1-4.5,3.2-4.8,3.2h-22.5Z"/>
  <path class="st3" d="M84.5,355c4.4.7,7.8,12.2-1.2,13.8-8.3,1.5-33.7,1.1-42.8.3-8.7-.7-7.4-6.7-7.5-14-18.7,3.6-19-17.4,0-14,1.6-8.8-5.5-30.1,9.3-27.8s4.7,3.8,4.7,5.3v36.5c11.3,1.3,26.7-1.8,37.5,0Z"/>
  <path class="st3" d="M159,37.5c.8-4.5,12.5-8.1,13.9,2.1.8,5.5.8,25.6-.2,30.7s-4.2,4.4-7.2,4.7c-6.5.7-21.5.7-28,0-4.7-.5-6-2.8-6.5-7.5s-.5-28.4.7-31.3,8.7-4.3,11.1-2,2.2,4,2.2,4.2v22.5h14c.8-7.1-1.1-16.7,0-23.5Z"/>
  <path class="st3" d="M58.7,132.3c2.9,2.7,3.2,21.1,1.3,24.1s-9.9,2.9-13.1,2.7c1.5,12.2-2.1,15-14,14,0,6.4,1.6,13.1-6.6,14s-8.4-17-7.2-23.3,9.4-4.9,13.8-4.7c1-1-1.6-21.4.9-25.3s22.4-3.7,24.8-1.4Z"/>
  <path class="st3" d="M33,271c18.7-3.6,19.1,17.4,0,14-1.7,8,4.9,26.8-6.6,28-5.7.6-7-3.6-7.5-8.4-1.6-18.1,1-39.2.5-57.6,1-3.5,8.7-5.2,11.3-2.6s2.2,4,2.2,4.2v22.5Z"/>
  <path class="st2" d="M128.7,160.3c2.7,2.5,2.3,9.3,2.3,12.7l10.8.7c5.1,5.1,4.6,12.2-3.3,13.3s-15.5.5-18.2-.6-3.5-10.1-3.2-13.3c-7.2-.7-16.4,1.1-23.3-.2s-7.8-12.4,1.9-13.7c6.3-.9,21.4-.7,28-.1s4,.1,5.2,1.3Z"/>
  <path class="st2" d="M453,341c-7.5,2.5-18.3-3.1-13.1-11.3,2.3-3.5,19.3-3.3,23.2-2.2s4.1,9.8,3.9,13.6c18.7-3.6,19,17.4,0,14,0,6.3,1.6,13.2-6.6,14s-7.4-2.3-7.4-5.5v-22.5Z"/>
  <path class="st2" d="M464.7,174.3c.7.6,2.1,4.3,2.2,5.3.8,8-8.2,7.7-14,7.4,1.5,12.2-2.1,15-14,14,0,6.4,1.6,13.1-6.6,14-9.4,1-8.1-15.1-7.4-21.5s7.8-6.5,14-6.5l.7-10.8c2.6-4.7,22.9-4,25.1-2Z"/>
  <path class="st4" d="M240.7,62.3c2.7,2.5,2.3,9.3,2.3,12.7,18.7-3.6,19.1,17.4,0,14,3.6,18.7-17.4,19.1-14,0-18.7,3.6-19.1-17.4,0-14,.3-3.1-.9-9.5,1.3-11.8s8.2-3.2,10.5-1Z"/>
  <path class="st4" d="M184.7,454.3c.7.6,2.1,4.3,2.2,5.3.8,8-8.2,7.7-14,7.4.1,8.6,1.6,13.2-8.4,14.1s-15.6.7-17.6-1.8c-7.3-8.8,3.8-14.3,12.1-12.3,0-7.5-1.7-13,7.5-14s16.4-.5,18.3,1.3Z"/>
  <path class="st4" d="M464.7,272.3c2.7,2.5,2.3,9.3,2.3,12.7,18.7-3.6,19.1,17.4,0,14-.1,5.9,1.7,12.6-5.7,13.8-5,.8-7.5-1.5-8.2-6.4s-.8-24,0-29.9,8-7.7,11.7-4.3Z"/>
  <path class="st2" d="M338.7,314.3c4.5,4.3,2.7,11.7-4.3,12.7s-25.6.8-30.7-.2-7.8-12.4,1.9-13.7,21.4-.7,28-.1,4,.1,5.2,1.3Z"/>
  <path class="st2" d="M394.7,174.3c1,1,2.1,4.7,2.3,6.2.7,6.2.7,22.9-.1,29s-12.5,8.7-13.8-1-.8-24,0-29.9,8-7.7,11.7-4.3Z"/>
  <path class="st4" d="M170.7,132.3c.7.6,2.1,4.3,2.2,5.3.8,8-8.2,7.7-14,7.4-.3,3.1.9,9.5-1.3,11.8s-8.2,3.2-10.5,1-3.3-22-1-24.5,22-3.3,24.5-1Z"/>
  <path class="st0" d="M142.7,90.3c3,2.8,2.9,18.9,1.8,22.8s-9,5.4-11.6,2.2-2.6-18.3-1.5-22.4,8.5-5.2,11.3-2.6Z"/>
  <path class="st0" d="M464.7,202.3c3,2.8,2.9,18.9,1.8,22.8s-9,5.4-11.6,2.2-2.6-18.3-1.5-22.4,8.5-5.2,11.3-2.6Z"/>
  <path class="st5" d="M107.7,215.2c13.2-2.9,12.1,17.6-.8,13.4s-5.4-12,.8-13.4Z"/>
  <path class="st5" d="M247.7,215.2c13.2-2.9,12.1,17.6-.8,13.4s-5.4-12,.8-13.4Z"/>
  <path class="st5" d="M415.7,215.2c13.2-2.9,12.1,17.6-.8,13.4s-5.4-12,.8-13.4Z"/>
  <path class="st5" d="M261.7,229.2c13.2-2.9,12.1,17.6-.8,13.4s-5.4-12,.8-13.4Z"/>
  <path class="st5" d="M401.7,229.2c-6.2,1.4-6.4,11.5-.8,13.4,12.9,4.2,14-16.3.8-13.4Z"/>
  <path class="st5" d="M471.7,229.2c13.2-2.9,12.1,17.6-.8,13.4s-5.4-12,.8-13.4Z"/>
  <path class="st5" d="M135.7,201.2c13.2-2.9,12.1,17.6-.8,13.4s-5.4-12,.8-13.4Z"/>
  <path class="st5" d="M247.7,243.2c13.2-2.9,12.1,17.6-.8,13.4s-5.4-12,.8-13.4Z"/>
  <path class="st5" d="M317.7,243.2c13.2-2.9,12.1,17.6-.8,13.4s-5.4-12,.8-13.4Z"/>
  <path class="st5" d="M331.7,257.2c13.2-2.9,12.1,17.6-.8,13.4-5.6-1.9-5.4-12,.8-13.4Z"/>
  <path class="st5" d="M471.7,257.2c13.2-2.9,12.1,17.6-.8,13.4-5.6-1.9-5.4-12,.8-13.4Z"/>
  <path class="st5" d="M107.7,271.2c13.2-2.9,12.1,17.6-.8,13.4s-5.4-12,.8-13.4Z"/>
  <path class="st5" d="M37.7,201.2c13.2-2.9,12.1,17.6-.8,13.4s-5.4-12,.8-13.4Z"/>
  <path class="st5" d="M247.7,173.2c13.2-2.9,12.1,17.6-.8,13.4s-5.4-12,.8-13.4Z"/>
  <path class="st5" d="M345.7,299.2c13.2-2.9,12.1,17.6-.8,13.4-5.6-1.9-5.4-12,.8-13.4Z"/>
  <path class="st5" d="M51.7,173.2c13.2-2.9,12.1,17.6-.8,13.4s-5.4-12,.8-13.4Z"/>
  <path class="st5" d="M471.7,159.2c13.2-2.9,12.1,17.6-.8,13.4s-5.4-12,.8-13.4Z"/>
  <path class="st5" d="M471.7,313.2c13.2-2.9,12.1,17.6-.8,13.4-5.6-1.9-5.4-12,.8-13.4Z"/>
  <path class="st5" d="M65.7,327.2c13.2-2.9,12.1,17.6-.8,13.4-5.6-1.9-5.4-12,.8-13.4Z"/>
  <path class="st5" d="M359.7,327.2c13.2-2.9,12.1,17.6-.8,13.4-5.6-1.9-5.4-12,.8-13.4Z"/>
  <path class="st5" d="M79.7,145.2c13.2-2.9,12.1,17.6-.8,13.4s-5.4-12,.8-13.4Z"/>
  <path class="st5" d="M121.7,341.2c13.2-2.9,12.1,17.6-.8,13.4s-5.4-12,.8-13.4Z"/>
  <path class="st5" d="M233.7,341.2c13.2-2.9,12.1,17.6-.8,13.4-5.6-1.9-5.4-12,.8-13.4Z"/>
  <path class="st5" d="M107.7,131.2c13.2-2.9,12.1,17.6-.8,13.4s-5.4-12,.8-13.4Z"/>
  <path class="st5" d="M331.7,341.2c13.2-2.9,12.1,17.6-.8,13.4-5.6-1.9-5.4-12,.8-13.4Z"/>
  <path class="st5" d="M107.7,355.2c13.2-2.9,12.1,17.6-.8,13.4s-5.4-12,.8-13.4Z"/>
  <path class="st5" d="M135.7,355.2c13.2-2.9,12.1,17.6-.8,13.4s-5.4-12,.8-13.4Z"/>
  <path class="st5" d="M331.7,103.2c13.2-2.9,12.1,17.6-.8,13.4s-5.4-12,.8-13.4Z"/>
  <path class="st5" d="M471.7,369.2c13.2-2.9,12.1,17.6-.8,13.4-5.6-1.9-5.4-12,.8-13.4Z"/>
  <path class="st5" d="M275.7,103.2c13.2-2.9,12.1,17.6-.8,13.4s-5.4-12,.8-13.4Z"/>
  <path class="st5" d="M247.7,103.2c13.2-2.9,12.1,17.6-.8,13.4s-5.4-12,.8-13.4Z"/>
  <path class="st5" d="M303.7,397.2c13.2-2.9,12.1,17.6-.8,13.4-5.6-1.9-5.4-12,.8-13.4Z"/>
  <path class="st5" d="M219.7,103.2c13.2-2.9,12.1,17.6-.8,13.4s-5.4-12,.8-13.4Z"/>
  <path class="st5" d="M163.7,103.2c13.2-2.9,12.1,17.6-.8,13.4s-5.4-12,.8-13.4Z"/>
  <path class="st5" d="M261.7,89.2c13.2-2.9,12.1,17.6-.8,13.4s-5.4-12,.8-13.4Z"/>
  <path class="st5" d="M275.7,75.2c13.2-2.9,12.1,17.6-.8,13.4s-5.4-12,.8-13.4Z"/>
  <path class="st5" d="M471.7,439.2c13.2-2.9,12.1,17.6-.8,13.4-5.6-1.9-5.4-12,.8-13.4Z"/>
  <path class="st5" d="M359.7,19.2c13.2-2.9,12.1,17.6-.8,13.4s-5.4-12,.8-13.4Z"/>
  <path class="st5" d="M205.7,453.2c13.2-2.9,12.1,17.6-.8,13.4-5.6-1.9-5.4-12,.8-13.4Z"/>
  <path class="st5" d="M177.7,19.2c13.2-2.9,12.1,17.6-.8,13.4s-5.4-12,.8-13.4Z"/>
  <path class="st5" d="M191.7,467.2c13.2-2.9,12.1,17.6-.8,13.4-5.6-1.9-5.4-12,.8-13.4Z"/>
  <path class="st5" d="M261.7,467.2c13.2-2.9,12.1,17.6-.8,13.4-5.6-1.9-5.4-12,.8-13.4Z"/>
  <path class="st5" d="M457.7,467.2c13.2-2.9,12.1,17.6-.8,13.4s-5.4-12,.8-13.4Z"/>
  <path class="st5" d="M387.7,383.2c13.2-2.9,12.1,17.6-.8,13.4-5.6-1.9-5.4-12,.8-13.4Z"/>
  <path class="st2" d="M427.7,47.2c28.9-4.9,34.2,37.1,8.5,41.5-28.9,4.9-34.2-37.1-8.5-41.5Z"/>
  <path class="st2" d="M63.7,411.2c28.9-4.9,34.2,37.1,8.5,41.5-28.9,4.9-34.2-37.1-8.5-41.5Z"/>
  <path class="st2" d="M63.7,47.2c28.9-4.9,34.2,37.1,8.5,41.5-28.9,4.9-34.2-37.1-8.5-41.5Z"/>
</svg>